<svg xmlns="http://www.w3.org/2000/svg" xmlns:xlink="http://www.w3.org/1999/xlink" width="500" zoomAndPan="magnify" viewBox="0 0 375 374.999991" height="500" preserveAspectRatio="xMidYMid meet" version="1.0"><defs><filter x="0%" y="0%" width="100%" height="100%" id="3674013ef5"><feColorMatrix values="0 0 0 0 1 0 0 0 0 1 0 0 0 0 1 0 0 0 1 0" color-interpolation-filters="sRGB"/></filter><g/><clipPath id="9c6d64768d"><path d="M 245 89 L 249.496094 89 L 249.496094 300 L 245 300 Z M 245 89 " clip-rule="nonzero"/></clipPath><clipPath id="46f40bd95a"><path d="M 140.140625 111 L 144.640625 111 L 144.640625 322 L 140.140625 322 Z M 140.140625 111 " clip-rule="nonzero"/></clipPath><clipPath id="3b4c0317ef"><path d="M 124.398438 133 L 128.898438 133 L 128.898438 344 L 124.398438 344 Z M 124.398438 133 " clip-rule="nonzero"/></clipPath><clipPath id="dd0dcde603"><path d="M 210 75 L 371 75 L 371 236 L 210 236 Z M 210 75 " clip-rule="nonzero"/></clipPath><clipPath id="3d5d6d6b0c"><path d="M 216.75 70.972656 L 374.789062 229.011719 L 364.179688 239.621094 L 206.144531 81.582031 Z M 216.75 70.972656 " clip-rule="nonzero"/></clipPath><clipPath id="a14446e09c"><path d="M 216.75 70.972656 L 374.789062 229.011719 L 364.179688 239.621094 L 206.144531 81.582031 Z M 216.75 70.972656 " clip-rule="nonzero"/></clipPath><clipPath id="226e9bacd0"><path d="M 216.75 70.972656 L 374.789062 229.011719 L 364.179688 239.621094 L 206.144531 81.582031 Z M 216.75 70.972656 " clip-rule="nonzero"/></clipPath><clipPath id="819524d616"><path d="M 13 133 L 159 133 L 159 279 L 13 279 Z M 13 133 " clip-rule="nonzero"/></clipPath><clipPath id="8fb45a87b8"><path d="M 18.59375 129.226562 L 162.3125 272.945312 L 152.769531 282.492188 L 9.050781 138.773438 Z M 18.59375 129.226562 " clip-rule="nonzero"/></clipPath><clipPath id="91f16ec690"><path d="M 18.59375 129.226562 L 162.3125 272.945312 L 152.769531 282.492188 L 9.050781 138.773438 Z M 18.59375 129.226562 " clip-rule="nonzero"/></clipPath><clipPath id="ce040090ed"><path d="M 18.59375 129.226562 L 162.3125 272.945312 L 152.769531 282.492188 L 9.050781 138.773438 Z M 18.59375 129.226562 " clip-rule="nonzero"/></clipPath><clipPath id="211552aa9f"><path d="M 216 227 L 366 227 L 366 375 L 216 375 Z M 216 227 " clip-rule="nonzero"/></clipPath><clipPath id="89327a07bf"><path d="M 222.015625 223.328125 L 369.445312 370.761719 L 359.898438 380.304688 L 212.46875 232.875 Z M 222.015625 223.328125 " clip-rule="nonzero"/></clipPath><clipPath id="5c01e1719d"><path d="M 222.015625 223.328125 L 369.445312 370.761719 L 359.898438 380.304688 L 212.46875 232.875 Z M 222.015625 223.328125 " clip-rule="nonzero"/></clipPath><clipPath id="bf0d6c33c3"><path d="M 222.015625 223.328125 L 369.445312 370.761719 L 359.898438 380.304688 L 212.46875 232.875 Z M 222.015625 223.328125 " clip-rule="nonzero"/></clipPath><clipPath id="0ca856ce11"><path d="M 176.066406 236 L 181 236 L 181 243 L 176.066406 243 Z M 176.066406 236 " clip-rule="nonzero"/></clipPath><clipPath id="c6899d58ae"><path d="M 176.066406 228 L 181 228 L 181 235 L 176.066406 235 Z M 176.066406 228 " clip-rule="nonzero"/></clipPath><clipPath id="2bc1064173"><path d="M 176.066406 179 L 181 179 L 181 186 L 176.066406 186 Z M 176.066406 179 " clip-rule="nonzero"/></clipPath><clipPath id="9c29ef94dc"><path d="M 176.066406 207 L 180 207 L 180 213 L 176.066406 213 Z M 176.066406 207 " clip-rule="nonzero"/></clipPath><clipPath id="a5d0c05421"><path d="M 176.066406 214 L 180 214 L 180 220 L 176.066406 220 Z M 176.066406 214 " clip-rule="nonzero"/></clipPath><clipPath id="ca3fde1e54"><path d="M 176.066406 221 L 180 221 L 180 227 L 176.066406 227 Z M 176.066406 221 " clip-rule="nonzero"/></clipPath><clipPath id="cc45daaf25"><path d="M 179 286 L 181.316406 286 L 181.316406 290 L 179 290 Z M 179 286 " clip-rule="nonzero"/></clipPath><clipPath id="282ce61f5f"><path d="M 179 293 L 181.316406 293 L 181.316406 296 L 179 296 Z M 179 293 " clip-rule="nonzero"/></clipPath><clipPath id="365e5a3d7c"><path d="M 179 307 L 180 307 L 180 307.980469 L 179 307.980469 Z M 179 307 " clip-rule="nonzero"/></clipPath><clipPath id="121ab5cbdb"><path d="M 17 0 L 177 0 L 177 147 L 17 147 Z M 17 0 " clip-rule="nonzero"/></clipPath><clipPath id="e100b110df"><path d="M 23.269531 -17.285156 L 181.308594 140.753906 L 170.703125 151.359375 L 12.664062 -6.679688 Z M 23.269531 -17.285156 " clip-rule="nonzero"/></clipPath><clipPath id="b26c969e8c"><path d="M 23.269531 -17.285156 L 181.308594 140.753906 L 170.703125 151.359375 L 12.664062 -6.679688 Z M 23.269531 -17.285156 " clip-rule="nonzero"/></clipPath><clipPath id="0676113642"><path d="M 23.269531 -17.285156 L 181.308594 140.753906 L 170.703125 151.359375 L 12.664062 -6.679688 Z M 23.269531 -17.285156 " clip-rule="nonzero"/></clipPath><clipPath id="c276ca9621"><path d="M 126.78125 111 L 131.28125 111 L 131.28125 322 L 126.78125 322 Z M 126.78125 111 " clip-rule="nonzero"/></clipPath><clipPath id="293b1cf5ec"><path d="M 242.613281 127 L 247.113281 127 L 247.113281 338 L 242.613281 338 Z M 242.613281 127 " clip-rule="nonzero"/></clipPath><mask id="331b5290fc"><g filter="url(#3674013ef5)"><rect x="-37.5" width="450" fill="#000000" y="-37.499999" height="449.999989" fill-opacity="0.7"/></g></mask><clipPath id="5da0e21ac2"><path d="M 237 84 L 241.496094 84 L 241.496094 295 L 237 295 Z M 237 84 " clip-rule="nonzero"/></clipPath><clipPath id="7f32fd5fbc"><path d="M 132.140625 105 L 136.640625 105 L 136.640625 316 L 132.140625 316 Z M 132.140625 105 " clip-rule="nonzero"/></clipPath><clipPath id="065671fa82"><path d="M 116.398438 127 L 120.898438 127 L 120.898438 338 L 116.398438 338 Z M 116.398438 127 " clip-rule="nonzero"/></clipPath><clipPath id="fe205fbd79"><path d="M 202 70 L 363 70 L 363 230 L 202 230 Z M 202 70 " clip-rule="nonzero"/></clipPath><clipPath id="7ec1761a16"><path d="M 208.75 65.5 L 366.789062 223.539062 L 356.179688 234.144531 L 198.144531 76.105469 Z M 208.75 65.5 " clip-rule="nonzero"/></clipPath><clipPath id="723a1b839b"><path d="M 208.75 65.5 L 366.789062 223.539062 L 356.179688 234.144531 L 198.144531 76.105469 Z M 208.75 65.5 " clip-rule="nonzero"/></clipPath><clipPath id="42e36de6f2"><path d="M 208.75 65.5 L 366.789062 223.539062 L 356.179688 234.144531 L 198.144531 76.105469 Z M 208.75 65.5 " clip-rule="nonzero"/></clipPath><clipPath id="bb1478de0a"><path d="M 5 127 L 151 127 L 151 273 L 5 273 Z M 5 127 " clip-rule="nonzero"/></clipPath><clipPath id="f3ecee41a7"><path d="M 10.59375 123.753906 L 154.3125 267.472656 L 144.769531 277.019531 L 1.050781 133.300781 Z M 10.59375 123.753906 " clip-rule="nonzero"/></clipPath><clipPath id="bd65f9dd8f"><path d="M 10.59375 123.753906 L 154.3125 267.472656 L 144.769531 277.019531 L 1.050781 133.300781 Z M 10.59375 123.753906 " clip-rule="nonzero"/></clipPath><clipPath id="12034c4469"><path d="M 10.59375 123.753906 L 154.3125 267.472656 L 144.769531 277.019531 L 1.050781 133.300781 Z M 10.59375 123.753906 " clip-rule="nonzero"/></clipPath><clipPath id="68fef760cb"><path d="M 208 222 L 358 222 L 358 371 L 208 371 Z M 208 222 " clip-rule="nonzero"/></clipPath><clipPath id="30bd7b778e"><path d="M 214.015625 217.855469 L 361.445312 365.285156 L 351.898438 374.832031 L 204.46875 227.402344 Z M 214.015625 217.855469 " clip-rule="nonzero"/></clipPath><clipPath id="fdccc067a4"><path d="M 214.015625 217.855469 L 361.445312 365.285156 L 351.898438 374.832031 L 204.46875 227.402344 Z M 214.015625 217.855469 " clip-rule="nonzero"/></clipPath><clipPath id="eb572737ba"><path d="M 214.015625 217.855469 L 361.445312 365.285156 L 351.898438 374.832031 L 204.46875 227.402344 Z M 214.015625 217.855469 " clip-rule="nonzero"/></clipPath><clipPath id="d04df7dca6"><path d="M 168.066406 231 L 173 231 L 173 237 L 168.066406 237 Z M 168.066406 231 " clip-rule="nonzero"/></clipPath><clipPath id="743c1c3613"><path d="M 168.066406 222 L 173 222 L 173 229 L 168.066406 229 Z M 168.066406 222 " clip-rule="nonzero"/></clipPath><clipPath id="dedde57340"><path d="M 168.066406 174 L 173 174 L 173 180 L 168.066406 180 Z M 168.066406 174 " clip-rule="nonzero"/></clipPath><clipPath id="4bf6fb9326"><path d="M 169 152.507812 L 173 152.507812 L 173 159 L 169 159 Z M 169 152.507812 " clip-rule="nonzero"/></clipPath><clipPath id="92ef627fe7"><path d="M 168.066406 201 L 172 201 L 172 207 L 168.066406 207 Z M 168.066406 201 " clip-rule="nonzero"/></clipPath><clipPath id="6fcdfb70c9"><path d="M 168.066406 208 L 172 208 L 172 214 L 168.066406 214 Z M 168.066406 208 " clip-rule="nonzero"/></clipPath><clipPath id="0060c5318c"><path d="M 168.066406 216 L 172 216 L 172 221 L 168.066406 221 Z M 168.066406 216 " clip-rule="nonzero"/></clipPath><clipPath id="ade7ddca72"><path d="M 171 281 L 173.316406 281 L 173.316406 284 L 171 284 Z M 171 281 " clip-rule="nonzero"/></clipPath><clipPath id="e1fbe86625"><path d="M 171 287 L 173.316406 287 L 173.316406 291 L 171 291 Z M 171 287 " clip-rule="nonzero"/></clipPath><clipPath id="71cca55b05"><path d="M 171 301 L 172 301 L 172 302.507812 L 171 302.507812 Z M 171 301 " clip-rule="nonzero"/></clipPath><clipPath id="71cb3c4b37"><path d="M 9 0 L 169 0 L 169 142 L 9 142 Z M 9 0 " clip-rule="nonzero"/></clipPath><clipPath id="64b9f5b3a3"><path d="M 15.269531 -22.757812 L 173.308594 135.28125 L 162.703125 145.886719 L 4.664062 -12.152344 Z M 15.269531 -22.757812 " clip-rule="nonzero"/></clipPath><clipPath id="982b13d64f"><path d="M 15.269531 -22.757812 L 173.308594 135.28125 L 162.703125 145.886719 L 4.664062 -12.152344 Z M 15.269531 -22.757812 " clip-rule="nonzero"/></clipPath><clipPath id="c796d57f88"><path d="M 15.269531 -22.757812 L 173.308594 135.28125 L 162.703125 145.886719 L 4.664062 -12.152344 Z M 15.269531 -22.757812 " clip-rule="nonzero"/></clipPath><clipPath id="8f0605e74f"><path d="M 118.78125 105 L 123.28125 105 L 123.28125 316 L 118.78125 316 Z M 118.78125 105 " clip-rule="nonzero"/></clipPath><clipPath id="643474c3bb"><path d="M 234.613281 122 L 239.113281 122 L 239.113281 333 L 234.613281 333 Z M 234.613281 122 " clip-rule="nonzero"/></clipPath><clipPath id="04325be7bf"><rect x="0" width="367" y="0" height="375"/></clipPath><clipPath id="d4efba9f60"><path d="M 105.503906 56.378906 L 269.753906 56.378906 L 269.753906 295.628906 L 105.503906 295.628906 Z M 105.503906 56.378906 " clip-rule="nonzero"/></clipPath></defs><rect x="-37.5" width="450" fill="#ffffff" y="-37.499999" height="449.999989" fill-opacity="1"/><rect x="-37.5" width="450" fill="#000000" y="-37.499999" height="449.999989" fill-opacity="1"/><path stroke-linecap="butt" transform="matrix(0.642185, -0.387425, 0.387425, 0.642185, 130.401339, 183.32322)" fill="none" stroke-linejoin="miter" d="M -0.000946684 6.497357 L 167.76625 6.499051 " stroke="#000000" stroke-width="13" stroke-opacity="1" stroke-miterlimit="4"/><g fill="#ffffff" fill-opacity="1"><g transform="translate(107.177935, 251.585761)"><g><path d="M 17.4375 0 L 17.4375 -145.609375 L 35.890625 -145.609375 L 35.890625 0 Z M 17.4375 0 "/></g></g></g><g fill="#ffffff" fill-opacity="1"><g transform="translate(160.49735, 251.585761)"><g><path d="M 17.4375 0 L 17.4375 -145.609375 L 35.890625 -145.609375 L 35.890625 0 Z M 17.4375 0 "/></g></g></g><g fill="#ffffff" fill-opacity="1"><g transform="translate(213.816765, 251.585761)"><g><path d="M 17.4375 0 L 17.4375 -145.609375 L 35.890625 -145.609375 L 35.890625 0 Z M 17.4375 0 "/></g></g></g><g fill="#ffffff" fill-opacity="1"><g transform="translate(267.192113, 251.585761)"><g/></g></g><path stroke-linecap="butt" transform="matrix(0.75, 0, 0, 0.75, 158.38826, 176.419426)" fill="none" stroke-linejoin="miter" d="M -0.00205567 6.498057 L 77.633366 6.498057 " stroke="#000000" stroke-width="13" stroke-opacity="1" stroke-miterlimit="4"/><g clip-path="url(#9c6d64768d)"><path fill="#000000" d="M 246.050781 194.710938 C 245.96875 187.855469 245.941406 181.007812 245.796875 174.15625 C 245.675781 168.425781 245.359375 162.703125 245.226562 156.972656 C 245.085938 150.804688 244.988281 144.636719 245 138.472656 C 245.011719 129.339844 245.105469 120.210938 245.226562 111.085938 C 245.285156 106.703125 245.445312 102.320312 245.660156 97.945312 C 245.765625 95.75 246.101562 93.578125 246.335938 91.394531 C 246.378906 90.976562 246.410156 90.5625 246.5 90.15625 C 246.539062 89.96875 246.703125 89.8125 246.8125 89.640625 C 246.921875 89.816406 247.121094 89.988281 247.128906 90.171875 C 247.167969 91.15625 247.167969 92.140625 247.164062 93.128906 C 247.128906 97.683594 247.082031 102.234375 247.050781 106.789062 C 247.042969 107.871094 247.074219 108.953125 247.09375 110.035156 C 247.15625 113.46875 247.230469 116.902344 247.273438 120.339844 C 247.296875 122.140625 247.253906 123.949219 247.257812 125.75 C 247.257812 133.191406 247.257812 140.628906 247.285156 148.070312 C 247.292969 150.503906 247.351562 152.929688 247.429688 155.359375 C 247.578125 159.890625 247.765625 164.421875 247.925781 168.953125 C 247.980469 170.625 248.03125 172.292969 248.050781 173.964844 C 248.207031 185.730469 248.371094 197.496094 248.5 209.261719 C 248.59375 217.613281 248.667969 225.964844 248.691406 234.3125 C 248.699219 238.507812 248.515625 242.703125 248.523438 246.894531 C 248.53125 251.257812 248.492188 255.640625 248.78125 259.988281 C 249.398438 269.484375 249.476562 279.007812 249.445312 288.535156 C 249.4375 291.015625 249.246094 293.496094 249.179688 295.984375 C 249.160156 296.902344 249.289062 297.832031 249.296875 298.753906 C 249.296875 299.027344 249.203125 299.378906 249.027344 299.539062 C 248.871094 299.679688 248.472656 299.707031 248.304688 299.585938 C 248.113281 299.449219 248.007812 299.109375 247.964844 298.839844 C 247.835938 298.042969 247.734375 297.238281 247.660156 296.4375 C 247.597656 295.738281 247.5625 295.039062 247.5625 294.335938 C 247.550781 285.417969 247.621094 276.492188 247.519531 267.574219 C 247.441406 261.257812 247.128906 254.9375 246.945312 248.621094 C 246.863281 245.929688 246.863281 243.234375 246.808594 240.539062 C 246.703125 235.890625 246.578125 231.238281 246.464844 226.59375 C 246.359375 222.210938 246.195312 217.832031 246.160156 213.445312 C 246.105469 207.203125 246.144531 200.957031 246.144531 194.714844 C 246.113281 194.714844 246.078125 194.714844 246.050781 194.714844 Z M 246.050781 194.710938 " fill-opacity="1" fill-rule="nonzero"/></g><g clip-path="url(#46f40bd95a)"><path fill="#000000" d="M 141.195312 216.25 C 141.113281 209.398438 141.089844 202.546875 140.941406 195.695312 C 140.820312 189.964844 140.503906 184.242188 140.375 178.511719 C 140.230469 172.34375 140.136719 166.175781 140.144531 160.011719 C 140.15625 150.878906 140.25 141.75 140.375 132.625 C 140.429688 128.246094 140.589844 123.859375 140.804688 119.484375 C 140.910156 117.289062 141.246094 115.117188 141.480469 112.933594 C 141.523438 112.515625 141.554688 112.101562 141.644531 111.695312 C 141.683594 111.511719 141.847656 111.351562 141.957031 111.179688 C 142.066406 111.355469 142.265625 111.527344 142.273438 111.710938 C 142.3125 112.695312 142.3125 113.679688 142.308594 114.667969 C 142.273438 119.222656 142.226562 123.773438 142.195312 128.328125 C 142.1875 129.410156 142.21875 130.492188 142.238281 131.574219 C 142.300781 135.007812 142.375 138.441406 142.421875 141.878906 C 142.441406 143.679688 142.398438 145.488281 142.402344 147.289062 C 142.402344 154.730469 142.402344 162.171875 142.429688 169.609375 C 142.4375 172.042969 142.496094 174.46875 142.574219 176.898438 C 142.726562 181.429688 142.910156 185.964844 143.070312 190.492188 C 143.125 192.164062 143.175781 193.832031 143.195312 195.503906 C 143.351562 207.269531 143.515625 219.035156 143.648438 230.800781 C 143.738281 239.152344 143.8125 247.503906 143.835938 255.851562 C 143.84375 260.046875 143.660156 264.242188 143.667969 268.4375 C 143.675781 272.796875 143.636719 277.179688 143.925781 281.527344 C 144.542969 291.023438 144.621094 300.546875 144.589844 310.074219 C 144.582031 312.554688 144.390625 315.035156 144.328125 317.523438 C 144.304688 318.441406 144.433594 319.371094 144.441406 320.292969 C 144.441406 320.566406 144.347656 320.921875 144.171875 321.078125 C 144.015625 321.21875 143.617188 321.246094 143.449219 321.125 C 143.257812 320.988281 143.152344 320.648438 143.109375 320.378906 C 142.980469 319.582031 142.878906 318.777344 142.804688 317.976562 C 142.742188 317.277344 142.707031 316.578125 142.707031 315.875 C 142.695312 306.957031 142.765625 298.03125 142.664062 289.113281 C 142.589844 282.796875 142.273438 276.480469 142.089844 270.160156 C 142.011719 267.46875 142.011719 264.773438 141.953125 262.078125 C 141.847656 257.429688 141.722656 252.777344 141.609375 248.132812 C 141.503906 243.75 141.339844 239.371094 141.304688 234.984375 C 141.25 228.742188 141.289062 222.496094 141.289062 216.253906 C 141.261719 216.253906 141.226562 216.253906 141.195312 216.253906 Z M 141.195312 216.25 " fill-opacity="1" fill-rule="nonzero"/></g><g clip-path="url(#3b4c0317ef)"><path fill="#000000" d="M 125.453125 238.386719 C 125.375 231.53125 125.347656 224.683594 125.203125 217.832031 C 125.078125 212.101562 124.765625 206.375 124.632812 200.648438 C 124.492188 194.480469 124.394531 188.3125 124.40625 182.144531 C 124.417969 173.015625 124.511719 163.886719 124.632812 154.761719 C 124.691406 150.378906 124.851562 145.996094 125.066406 141.617188 C 125.171875 139.425781 125.507812 137.25 125.742188 135.066406 C 125.785156 134.652344 125.816406 134.238281 125.90625 133.832031 C 125.945312 133.644531 126.109375 133.488281 126.21875 133.3125 C 126.328125 133.492188 126.527344 133.664062 126.535156 133.847656 C 126.574219 134.832031 126.574219 135.816406 126.570312 136.804688 C 126.535156 141.355469 126.488281 145.910156 126.457031 150.464844 C 126.449219 151.546875 126.476562 152.628906 126.5 153.710938 C 126.5625 157.144531 126.636719 160.578125 126.679688 164.015625 C 126.703125 165.816406 126.660156 167.621094 126.664062 169.421875 C 126.664062 176.863281 126.664062 184.304688 126.691406 191.746094 C 126.699219 194.175781 126.757812 196.601562 126.835938 199.035156 C 126.984375 203.5625 127.171875 208.097656 127.328125 212.628906 C 127.386719 214.296875 127.4375 215.96875 127.457031 217.640625 C 127.613281 229.40625 127.773438 241.171875 127.90625 252.9375 C 128 261.285156 128.074219 269.636719 128.097656 277.988281 C 128.105469 282.183594 127.921875 286.375 127.929688 290.570312 C 127.9375 294.933594 127.898438 299.3125 128.1875 303.660156 C 128.804688 313.160156 128.882812 322.683594 128.851562 332.207031 C 128.84375 334.691406 128.652344 337.171875 128.585938 339.660156 C 128.566406 340.578125 128.691406 341.507812 128.703125 342.429688 C 128.703125 342.699219 128.609375 343.054688 128.433594 343.214844 C 128.277344 343.355469 127.875 343.382812 127.710938 343.261719 C 127.519531 343.125 127.414062 342.785156 127.371094 342.515625 C 127.242188 341.714844 127.140625 340.914062 127.066406 340.113281 C 127.003906 339.410156 126.96875 338.710938 126.96875 338.011719 C 126.953125 329.09375 127.023438 320.167969 126.925781 311.246094 C 126.847656 304.929688 126.535156 298.613281 126.351562 292.296875 C 126.269531 289.605469 126.269531 286.910156 126.214844 284.210938 C 126.109375 279.566406 125.984375 274.914062 125.871094 270.269531 C 125.761719 265.886719 125.601562 261.507812 125.566406 257.121094 C 125.511719 250.878906 125.550781 244.632812 125.550781 238.390625 C 125.519531 238.390625 125.484375 238.390625 125.453125 238.390625 Z M 125.453125 238.386719 " fill-opacity="1" fill-rule="nonzero"/></g><g clip-path="url(#dd0dcde603)"><g clip-path="url(#3d5d6d6b0c)"><g clip-path="url(#a14446e09c)"><g clip-path="url(#226e9bacd0)"><path fill="#000000" d="M 368.121094 222.347656 L 223.414062 77.640625 C 220.5625 74.785156 215.871094 74.847656 212.945312 77.777344 C 210.015625 80.703125 209.953125 85.394531 212.808594 88.246094 L 357.515625 232.953125 C 360.371094 235.808594 365.058594 235.746094 367.988281 232.816406 C 370.914062 229.890625 370.976562 225.199219 368.121094 222.347656 Z M 368.121094 222.347656 " fill-opacity="1" fill-rule="nonzero"/></g></g></g></g><g clip-path="url(#819524d616)"><g clip-path="url(#8fb45a87b8)"><g clip-path="url(#91f16ec690)"><g clip-path="url(#ce040090ed)"><path fill="#000000" d="M 156.277344 266.910156 L 24.632812 135.265625 C 22.035156 132.667969 17.792969 132.699219 15.160156 135.335938 C 12.523438 137.972656 12.492188 142.214844 15.085938 144.8125 L 146.730469 276.453125 C 149.328125 279.050781 153.570312 279.019531 156.207031 276.382812 C 158.839844 273.746094 158.875 269.503906 156.277344 266.910156 Z M 156.277344 266.910156 " fill-opacity="1" fill-rule="nonzero"/></g></g></g></g><g clip-path="url(#211552aa9f)"><g clip-path="url(#89327a07bf)"><g clip-path="url(#5c01e1719d)"><g clip-path="url(#bf0d6c33c3)"><path fill="#000000" d="M 363.277344 364.59375 L 228.179688 229.496094 C 225.515625 226.832031 221.21875 226.808594 218.582031 229.441406 C 215.945312 232.078125 215.96875 236.375 218.632812 239.042969 L 353.734375 374.140625 C 356.398438 376.804688 360.695312 376.828125 363.332031 374.191406 C 365.964844 371.554688 365.945312 367.257812 363.277344 364.59375 Z M 363.277344 364.59375 " fill-opacity="1" fill-rule="nonzero"/></g></g></g></g><g clip-path="url(#0ca856ce11)"><path fill="#000000" d="M 180.4375 242.078125 C 179.3125 242.457031 178.496094 242.167969 177.957031 241.257812 C 177.507812 240.441406 177.140625 239.5625 176.804688 238.683594 C 176.523438 237.953125 177.027344 236.988281 177.875 236.785156 C 178.410156 236.667969 179 236.695312 179.566406 236.726562 C 180.15625 236.753906 180.46875 237.078125 180.496094 237.542969 C 180.636719 239.09375 180.636719 240.617188 180.4375 242.078125 Z M 180.4375 242.078125 " fill-opacity="1" fill-rule="nonzero"/></g><g clip-path="url(#c6899d58ae)"><path fill="#000000" d="M 179.960938 231.664062 C 179.960938 232.25 179.988281 232.835938 179.929688 233.421875 C 179.902344 233.742188 179.847656 234.179688 179.394531 234.179688 C 179.085938 234.179688 178.746094 234.09375 178.4375 234.003906 C 178.324219 233.976562 178.210938 233.917969 178.15625 233.828125 C 177.226562 232.777344 176.523438 231.578125 176.183594 230.203125 C 176.070312 229.792969 176.183594 229.296875 176.296875 228.828125 C 176.324219 228.652344 176.578125 228.417969 176.746094 228.359375 C 177.761719 228.007812 178.71875 228.476562 179.707031 228.679688 C 179.847656 228.710938 180.042969 229.03125 180.042969 229.238281 C 180.074219 230.054688 180.074219 230.875 180.074219 231.695312 C 180.042969 231.664062 180.015625 231.664062 179.960938 231.664062 Z M 179.960938 231.664062 " fill-opacity="1" fill-rule="nonzero"/></g><g clip-path="url(#2bc1064173)"><path fill="#000000" d="M 176.886719 181.996094 C 176.886719 181.820312 176.886719 181.703125 176.886719 181.585938 C 176.945312 180.476562 177.902344 179.742188 179 179.917969 C 179.789062 180.066406 180.355469 180.5625 180.355469 181.234375 C 180.355469 182.289062 180.296875 183.3125 180.242188 184.367188 C 180.214844 184.890625 179.480469 185.300781 178.945312 185.125 C 177.875 184.804688 177.199219 184.101562 177 182.960938 C 176.945312 182.640625 176.917969 182.289062 176.886719 181.996094 Z M 176.886719 181.996094 " fill-opacity="1" fill-rule="nonzero"/></g><path fill="#000000" d="M 180.214844 172.929688 C 180.804688 173.835938 180.496094 174.800781 180.496094 175.738281 C 180.496094 176.085938 180.4375 176.4375 180.410156 176.789062 C 180.355469 177.375 179.679688 177.753906 179.140625 177.492188 C 177.453125 176.671875 176.804688 175.355469 177.113281 173.457031 C 177.140625 173.222656 177.253906 172.957031 177.394531 172.839844 C 177.648438 172.636719 177.988281 172.34375 178.269531 172.371094 C 178.917969 172.488281 179.566406 172.753906 180.214844 172.929688 Z M 180.214844 172.929688 " fill-opacity="1" fill-rule="nonzero"/><path fill="#000000" d="M 180.183594 248.71875 C 179.59375 248.953125 179.03125 248.804688 178.605469 248.425781 C 177.648438 247.546875 177.027344 246.464844 177.085938 245.089844 C 177.085938 244.625 177.535156 244.214844 177.988281 244.332031 C 178.746094 244.535156 179.480469 244.769531 180.214844 244.972656 C 180.691406 246.789062 180.664062 246.789062 180.183594 248.71875 Z M 180.183594 248.71875 " fill-opacity="1" fill-rule="nonzero"/><path fill="#000000" d="M 180.664062 161.929688 C 180.609375 162.28125 180.550781 162.867188 180.4375 163.421875 C 180.410156 163.539062 180.015625 163.683594 179.902344 163.625 C 178.746094 162.953125 177.929688 162.019531 177.816406 160.585938 C 177.789062 160 177.816406 159.414062 177.902344 158.828125 C 177.929688 158.625 178.101562 158.390625 178.296875 158.304688 C 178.972656 157.980469 180.355469 158.800781 180.46875 159.5625 C 180.550781 160.261719 180.578125 160.964844 180.664062 161.929688 Z M 180.664062 161.929688 " fill-opacity="1" fill-rule="nonzero"/><g clip-path="url(#9c29ef94dc)"><path fill="#000000" d="M 179.988281 210.136719 C 179.960938 210.574219 179.902344 211.011719 179.875 211.480469 C 179.847656 211.890625 179.226562 212.183594 178.804688 211.980469 C 178.523438 211.804688 178.210938 211.65625 177.988281 211.421875 C 177.113281 210.546875 176.886719 209.40625 176.832031 208.234375 C 176.832031 208.03125 177 207.796875 177.113281 207.621094 C 177.535156 207.066406 178.101562 207.183594 178.664062 207.296875 C 179.226562 207.445312 179.761719 207.707031 179.847656 208.382812 C 179.960938 208.90625 179.960938 209.492188 179.988281 210.136719 Z M 179.988281 210.136719 " fill-opacity="1" fill-rule="nonzero"/></g><path fill="#000000" d="M 177.058594 195.65625 C 177.113281 195.453125 177.113281 195.070312 177.28125 194.808594 C 177.453125 194.546875 177.761719 194.28125 178.042969 194.222656 C 179.085938 193.988281 179.929688 194.605469 179.988281 195.570312 C 180.015625 196.269531 180.015625 196.972656 179.988281 197.675781 C 179.988281 198.230469 179.648438 198.640625 179.253906 198.726562 C 178.777344 198.816406 178.324219 198.640625 177.988281 198.347656 C 177.339844 197.675781 177.058594 196.796875 177.058594 195.65625 Z M 177.058594 195.65625 " fill-opacity="1" fill-rule="nonzero"/><g clip-path="url(#a5d0c05421)"><path fill="#000000" d="M 179.621094 219.203125 C 179.171875 219.4375 178.746094 219.351562 178.382812 219.027344 C 177.480469 218.269531 176.972656 217.214844 176.804688 216.042969 C 176.71875 215.460938 176.945312 214.902344 177.480469 214.582031 C 177.648438 214.464844 177.988281 214.40625 178.101562 214.496094 C 178.636719 214.902344 179.140625 215.34375 179.621094 215.839844 C 179.761719 215.984375 179.820312 216.25 179.847656 216.484375 C 179.875 217.390625 179.988281 218.328125 179.621094 219.203125 Z M 179.621094 219.203125 " fill-opacity="1" fill-rule="nonzero"/></g><path fill="#000000" d="M 180.382812 170.089844 C 179.761719 170.355469 179.226562 170.121094 178.746094 169.828125 C 178.042969 169.390625 177.648438 168.65625 177.28125 167.925781 C 176.945312 167.226562 177.59375 166.140625 178.382812 166.113281 C 178.71875 166.082031 179.058594 166.140625 179.394531 166.199219 C 179.988281 166.316406 180.4375 166.699219 180.523438 167.371094 C 180.609375 167.957031 180.636719 168.539062 180.609375 169.125 C 180.609375 169.449219 180.4375 169.796875 180.382812 170.089844 Z M 180.382812 170.089844 " fill-opacity="1" fill-rule="nonzero"/><g clip-path="url(#ca3fde1e54)"><path fill="#000000" d="M 179.621094 226.105469 C 178.746094 226.339844 178.070312 225.960938 177.5625 225.289062 C 176.972656 224.527344 176.832031 223.621094 177.140625 222.65625 C 177.253906 222.304688 177.816406 221.925781 178.183594 221.925781 C 179.085938 221.953125 179.734375 222.507812 179.789062 223.359375 C 179.847656 224.058594 179.847656 224.761719 179.847656 225.433594 C 179.820312 225.667969 179.707031 225.902344 179.621094 226.105469 Z M 179.621094 226.105469 " fill-opacity="1" fill-rule="nonzero"/></g><path fill="#000000" d="M 179.929688 203.992188 C 179.929688 204.023438 179.902344 204.375 179.761719 204.695312 C 179.707031 204.839844 179.394531 204.988281 179.226562 204.957031 C 177.902344 204.636719 177.199219 203.847656 177.140625 202.617188 C 177.113281 202.121094 177.28125 201.683594 177.707031 201.449219 C 178.691406 200.921875 179.847656 201.566406 179.929688 202.648438 C 179.960938 203 179.929688 203.351562 179.929688 203.992188 Z M 179.929688 203.992188 " fill-opacity="1" fill-rule="nonzero"/><path fill="#000000" d="M 180.242188 251.4375 C 180.269531 252.054688 180.296875 252.609375 180.296875 253.195312 C 180.296875 253.867188 179.847656 254.714844 179.59375 254.628906 C 179.199219 254.480469 178.746094 254.277344 178.4375 253.984375 C 178.128906 253.691406 177.902344 253.253906 177.675781 252.84375 C 177.3125 252.171875 177.28125 251.527344 177.5625 251.234375 C 177.957031 250.855469 178.410156 251.027344 178.832031 251.117188 C 179.285156 251.203125 179.734375 251.292969 180.242188 251.4375 Z M 180.242188 251.4375 " fill-opacity="1" fill-rule="nonzero"/><path fill="#000000" d="M 179.761719 261.238281 C 179.507812 261.121094 179.140625 261.0625 178.890625 260.828125 C 178.242188 260.300781 177.875 259.570312 177.761719 258.691406 C 177.675781 258.050781 177.957031 257.257812 178.324219 257.144531 C 179.226562 256.878906 180.382812 257.523438 180.410156 258.429688 C 180.4375 259.25 180.382812 260.066406 180.296875 260.886719 C 180.324219 261.003906 180.015625 261.089844 179.761719 261.238281 Z M 179.761719 261.238281 " fill-opacity="1" fill-rule="nonzero"/><path fill="#000000" d="M 180.015625 190.070312 C 179.929688 190.390625 179.875 190.859375 179.707031 191.269531 C 179.648438 191.414062 179.3125 191.5625 179.140625 191.53125 C 178.832031 191.445312 178.410156 191.328125 178.269531 191.0625 C 177.902344 190.480469 177.621094 189.835938 177.367188 189.191406 C 177.199219 188.78125 177.394531 188.140625 177.675781 187.90625 C 178.15625 187.523438 179.140625 187.496094 179.566406 187.933594 C 179.707031 188.082031 179.847656 188.316406 179.875 188.519531 C 179.988281 188.957031 179.988281 189.457031 180.015625 190.070312 Z M 180.015625 190.070312 " fill-opacity="1" fill-rule="nonzero"/><path fill="#000000" d="M 180.636719 265.1875 C 180.578125 265.507812 180.550781 265.890625 180.4375 266.179688 C 180.382812 266.328125 180.074219 266.53125 179.929688 266.503906 C 178.890625 266.179688 178.296875 265.273438 178.324219 264.132812 C 178.324219 264.015625 178.382812 263.898438 178.4375 263.839844 C 178.777344 263.460938 179.988281 263.488281 180.355469 263.871094 C 180.4375 263.957031 180.523438 264.046875 180.550781 264.132812 C 180.578125 264.457031 180.578125 264.804688 180.636719 265.1875 Z M 180.636719 265.1875 " fill-opacity="1" fill-rule="nonzero"/><path fill="#000000" d="M 180.074219 272.441406 C 179.960938 272.410156 179.820312 272.410156 179.761719 272.351562 C 178.972656 271.769531 178.578125 270.949219 178.523438 269.925781 C 178.496094 269.457031 178.945312 269.019531 179.394531 269.136719 C 180.214844 269.3125 180.550781 269.605469 180.523438 270.21875 C 180.523438 270.921875 180.410156 271.621094 180.355469 272.324219 C 180.324219 272.382812 180.15625 272.410156 180.074219 272.441406 Z M 180.074219 272.441406 " fill-opacity="1" fill-rule="nonzero"/><g clip-path="url(#cc45daaf25)"><path fill="#000000" d="M 180.609375 289.261719 C 179.820312 289.113281 179.566406 288.441406 179.3125 287.796875 C 179.03125 287.125 179.621094 286.394531 180.410156 286.480469 C 180.609375 286.511719 180.890625 286.65625 180.945312 286.832031 C 181.285156 287.59375 181.3125 288.414062 180.917969 289.171875 C 180.890625 289.230469 180.71875 289.230469 180.609375 289.261719 Z M 180.609375 289.261719 " fill-opacity="1" fill-rule="nonzero"/></g><path fill="#000000" d="M 180.523438 283.410156 C 180.410156 283.410156 180.296875 283.46875 180.214844 283.410156 C 179.535156 283.117188 179.140625 282.53125 178.972656 281.800781 C 178.890625 281.480469 179.394531 280.925781 179.820312 280.835938 C 180.183594 280.777344 180.578125 280.867188 180.664062 281.214844 C 180.832031 281.773438 180.917969 282.355469 180.945312 282.941406 C 180.972656 283.089844 180.691406 283.265625 180.523438 283.410156 Z M 180.523438 283.410156 " fill-opacity="1" fill-rule="nonzero"/><g clip-path="url(#282ce61f5f)"><path fill="#000000" d="M 179.199219 294.085938 C 179.285156 293.707031 179.820312 293.269531 180.183594 293.210938 C 180.523438 293.179688 181.003906 293.648438 181.03125 294.085938 C 181.058594 294.527344 181.171875 295.023438 180.804688 295.402344 C 180.664062 295.550781 180.355469 295.695312 180.242188 295.609375 C 179.761719 295.316406 179.285156 294.992188 179.199219 294.378906 C 179.199219 294.292969 179.199219 294.175781 179.199219 294.085938 Z M 179.199219 294.085938 " fill-opacity="1" fill-rule="nonzero"/></g><path fill="#000000" d="M 179.789062 275.835938 C 180.015625 276.007812 180.296875 276.183594 180.496094 276.417969 C 180.71875 276.710938 180.609375 277.0625 180.4375 277.355469 C 180.382812 277.441406 180.296875 277.53125 180.214844 277.53125 C 179.761719 277.53125 179.199219 276.800781 179.339844 276.300781 C 179.367188 276.183594 179.59375 276.039062 179.789062 275.835938 Z M 179.789062 275.835938 " fill-opacity="1" fill-rule="nonzero"/><path fill="#000000" d="M 179.820312 301.78125 C 179.734375 301.605469 179.453125 301.28125 179.507812 301.105469 C 179.621094 300.84375 179.960938 300.699219 180.214844 300.523438 C 180.296875 300.726562 180.410156 300.933594 180.410156 301.136719 C 180.4375 301.605469 180.242188 301.839844 179.820312 301.78125 Z M 179.820312 301.78125 " fill-opacity="1" fill-rule="nonzero"/><g clip-path="url(#365e5a3d7c)"><path fill="#000000" d="M 179.621094 307.980469 C 179.621094 307.980469 179.425781 307.980469 179.425781 307.953125 C 179.394531 307.746094 179.3125 307.511719 179.367188 307.335938 C 179.480469 307.015625 179.679688 307.046875 179.734375 307.367188 C 179.789062 307.570312 179.679688 307.777344 179.621094 307.980469 Z M 179.621094 307.980469 " fill-opacity="1" fill-rule="nonzero"/></g><g clip-path="url(#121ab5cbdb)"><g clip-path="url(#e100b110df)"><g clip-path="url(#b26c969e8c)"><g clip-path="url(#0676113642)"><path fill="#000000" d="M 174.644531 134.085938 L 29.9375 -10.617188 C 27.082031 -13.472656 22.394531 -13.414062 19.464844 -10.484375 C 16.535156 -7.554688 16.476562 -2.867188 19.328125 -0.0117188 L 164.035156 144.695312 C 166.890625 147.546875 171.578125 147.488281 174.507812 144.558594 C 177.4375 141.628906 177.496094 136.941406 174.644531 134.085938 Z M 174.644531 134.085938 " fill-opacity="1" fill-rule="nonzero"/></g></g></g></g><g clip-path="url(#c276ca9621)"><path fill="#000000" d="M 127.835938 216.25 C 127.757812 209.398438 127.730469 202.546875 127.582031 195.695312 C 127.460938 189.964844 127.148438 184.242188 127.015625 178.511719 C 126.875 172.34375 126.777344 166.175781 126.785156 160.011719 C 126.796875 150.878906 126.890625 141.75 127.015625 132.625 C 127.070312 128.246094 127.230469 123.859375 127.445312 119.484375 C 127.554688 117.289062 127.886719 115.117188 128.121094 112.933594 C 128.167969 112.515625 128.195312 112.101562 128.285156 111.695312 C 128.324219 111.511719 128.488281 111.351562 128.597656 111.179688 C 128.707031 111.355469 128.90625 111.527344 128.917969 111.710938 C 128.957031 112.695312 128.957031 113.679688 128.953125 114.667969 C 128.917969 119.222656 128.867188 123.773438 128.835938 128.328125 C 128.828125 129.410156 128.859375 130.492188 128.882812 131.574219 C 128.941406 135.007812 129.019531 138.441406 129.0625 141.878906 C 129.082031 143.679688 129.039062 145.488281 129.042969 147.289062 C 129.042969 154.730469 129.042969 162.171875 129.070312 169.609375 C 129.078125 172.042969 129.136719 174.46875 129.214844 176.898438 C 129.367188 181.429688 129.550781 185.964844 129.710938 190.492188 C 129.769531 192.164062 129.816406 193.832031 129.839844 195.503906 C 129.992188 207.269531 130.15625 219.035156 130.289062 230.800781 C 130.382812 239.152344 130.457031 247.503906 130.476562 255.851562 C 130.488281 260.046875 130.300781 264.242188 130.308594 268.4375 C 130.320312 272.796875 130.28125 277.179688 130.566406 281.527344 C 131.183594 291.023438 131.261719 300.546875 131.230469 310.074219 C 131.222656 312.554688 131.035156 315.035156 130.96875 317.523438 C 130.945312 318.441406 131.074219 319.371094 131.082031 320.292969 C 131.082031 320.566406 130.988281 320.921875 130.8125 321.078125 C 130.660156 321.21875 130.257812 321.246094 130.089844 321.125 C 129.898438 320.988281 129.792969 320.648438 129.75 320.378906 C 129.621094 319.582031 129.519531 318.777344 129.445312 317.976562 C 129.382812 317.277344 129.347656 316.578125 129.347656 315.875 C 129.335938 306.957031 129.40625 298.03125 129.304688 289.113281 C 129.230469 282.796875 128.917969 276.480469 128.730469 270.160156 C 128.652344 267.46875 128.652344 264.773438 128.59375 262.078125 C 128.488281 257.429688 128.363281 252.777344 128.25 248.132812 C 128.144531 243.75 127.980469 239.371094 127.945312 234.984375 C 127.894531 228.742188 127.933594 222.496094 127.933594 216.253906 C 127.902344 216.253906 127.867188 216.253906 127.835938 216.253906 Z M 127.835938 216.25 " fill-opacity="1" fill-rule="nonzero"/></g><g clip-path="url(#293b1cf5ec)"><path fill="#000000" d="M 243.667969 233.035156 C 243.589844 226.179688 243.5625 219.332031 243.417969 212.480469 C 243.292969 206.75 242.980469 201.027344 242.847656 195.296875 C 242.707031 189.128906 242.609375 182.960938 242.617188 176.792969 C 242.632812 167.664062 242.722656 158.535156 242.847656 149.410156 C 242.90625 145.027344 243.0625 140.644531 243.28125 136.265625 C 243.386719 134.074219 243.722656 131.902344 243.957031 129.71875 C 244 129.300781 244.03125 128.886719 244.117188 128.480469 C 244.15625 128.292969 244.320312 128.136719 244.429688 127.964844 C 244.542969 128.140625 244.742188 128.3125 244.75 128.496094 C 244.789062 129.480469 244.789062 130.464844 244.785156 131.453125 C 244.75 136.007812 244.699219 140.558594 244.667969 145.113281 C 244.660156 146.195312 244.691406 147.277344 244.714844 148.359375 C 244.777344 151.792969 244.851562 155.226562 244.894531 158.664062 C 244.917969 160.464844 244.871094 162.273438 244.878906 164.074219 C 244.878906 171.511719 244.878906 178.953125 244.902344 186.394531 C 244.914062 188.828125 244.96875 191.253906 245.050781 193.683594 C 245.199219 198.214844 245.382812 202.746094 245.542969 207.277344 C 245.601562 208.949219 245.648438 210.617188 245.671875 212.289062 C 245.824219 224.054688 245.988281 235.820312 246.121094 247.585938 C 246.214844 255.9375 246.289062 264.289062 246.3125 272.636719 C 246.320312 276.832031 246.132812 281.027344 246.144531 285.21875 C 246.152344 289.582031 246.113281 293.964844 246.398438 298.3125 C 247.015625 307.808594 247.097656 317.332031 247.066406 326.859375 C 247.054688 329.339844 246.867188 331.820312 246.800781 334.308594 C 246.777344 335.226562 246.90625 336.15625 246.914062 337.078125 C 246.914062 337.351562 246.824219 337.703125 246.644531 337.863281 C 246.492188 338.003906 246.089844 338.03125 245.921875 337.910156 C 245.734375 337.773438 245.628906 337.433594 245.582031 337.164062 C 245.457031 336.367188 245.355469 335.5625 245.277344 334.761719 C 245.21875 334.0625 245.179688 333.359375 245.179688 332.660156 C 245.167969 323.742188 245.238281 314.816406 245.136719 305.898438 C 245.0625 299.578125 244.75 293.261719 244.5625 286.945312 C 244.484375 284.253906 244.484375 281.558594 244.425781 278.863281 C 244.320312 274.214844 244.199219 269.5625 244.082031 264.917969 C 243.976562 260.535156 243.8125 256.15625 243.777344 251.769531 C 243.726562 245.527344 243.765625 239.28125 243.765625 233.039062 C 243.734375 233.039062 243.699219 233.039062 243.667969 233.039062 Z M 243.667969 233.035156 " fill-opacity="1" fill-rule="nonzero"/></g><g mask="url(#331b5290fc)"><g transform="matrix(1, 0, 0, 1, 8, 0)"><g clip-path="url(#04325be7bf)"><path stroke-linecap="butt" transform="matrix(0.642185, -0.387425, 0.387425, 0.642185, 122.401354, 177.849423)" fill="none" stroke-linejoin="miter" d="M -0.00174899 6.49865 L 167.765447 6.500344 " stroke="#000000" stroke-width="13" stroke-opacity="1" stroke-miterlimit="4"/><g fill="#ffffff" fill-opacity="1"><g transform="translate(99.177928, 246.111962)"><g><path d="M 17.4375 0 L 17.4375 -145.609375 L 35.890625 -145.609375 L 35.890625 0 Z M 17.4375 0 "/></g></g></g><g fill="#ffffff" fill-opacity="1"><g transform="translate(152.497343, 246.111962)"><g><path d="M 17.4375 0 L 17.4375 -145.609375 L 35.890625 -145.609375 L 35.890625 0 Z M 17.4375 0 "/></g></g></g><g fill="#ffffff" fill-opacity="1"><g transform="translate(205.816758, 246.111962)"><g><path d="M 17.4375 0 L 17.4375 -145.609375 L 35.890625 -145.609375 L 35.890625 0 Z M 17.4375 0 "/></g></g></g><g fill="#ffffff" fill-opacity="1"><g transform="translate(259.192106, 246.111962)"><g/></g></g><path stroke-linecap="butt" transform="matrix(0.75, 0, 0, 0.75, 150.388246, 170.945643)" fill="none" stroke-linejoin="miter" d="M -0.00203647 6.49956 L 77.633385 6.49956 " stroke="#000000" stroke-width="13" stroke-opacity="1" stroke-miterlimit="4"/><g clip-path="url(#5da0e21ac2)"><path fill="#000000" d="M 238.050781 189.238281 C 237.96875 182.382812 237.941406 175.535156 237.796875 168.683594 C 237.675781 162.953125 237.359375 157.226562 237.226562 151.5 C 237.085938 145.332031 236.988281 139.164062 237 132.996094 C 237.011719 123.867188 237.105469 114.738281 237.226562 105.613281 C 237.285156 101.230469 237.445312 96.847656 237.660156 92.46875 C 237.765625 90.277344 238.101562 88.101562 238.335938 85.917969 C 238.378906 85.503906 238.410156 85.089844 238.5 84.683594 C 238.539062 84.496094 238.703125 84.339844 238.8125 84.164062 C 238.921875 84.34375 239.121094 84.515625 239.128906 84.699219 C 239.167969 85.683594 239.167969 86.667969 239.164062 87.65625 C 239.128906 92.207031 239.082031 96.761719 239.050781 101.316406 C 239.042969 102.398438 239.074219 103.480469 239.09375 104.5625 C 239.15625 107.996094 239.230469 111.429688 239.273438 114.867188 C 239.296875 116.667969 239.253906 118.472656 239.257812 120.273438 C 239.257812 127.714844 239.257812 135.15625 239.285156 142.597656 C 239.292969 145.027344 239.351562 147.453125 239.429688 149.886719 C 239.578125 154.414062 239.765625 158.949219 239.925781 163.480469 C 239.980469 165.148438 240.03125 166.820312 240.050781 168.492188 C 240.207031 180.257812 240.371094 192.023438 240.5 203.789062 C 240.59375 212.140625 240.667969 220.488281 240.691406 228.839844 C 240.699219 233.035156 240.515625 237.230469 240.523438 241.421875 C 240.53125 245.785156 240.492188 250.164062 240.78125 254.511719 C 241.398438 264.011719 241.476562 273.535156 241.445312 283.058594 C 241.4375 285.542969 241.246094 288.023438 241.179688 290.511719 C 241.160156 291.429688 241.289062 292.359375 241.296875 293.28125 C 241.296875 293.550781 241.203125 293.90625 241.027344 294.066406 C 240.871094 294.207031 240.472656 294.234375 240.304688 294.113281 C 240.113281 293.976562 240.007812 293.636719 239.964844 293.367188 C 239.835938 292.566406 239.734375 291.765625 239.660156 290.964844 C 239.597656 290.261719 239.5625 289.5625 239.5625 288.863281 C 239.550781 279.945312 239.621094 271.019531 239.519531 262.097656 C 239.441406 255.78125 239.128906 249.464844 238.945312 243.148438 C 238.863281 240.457031 238.863281 237.761719 238.808594 235.0625 C 238.703125 230.417969 238.578125 225.765625 238.464844 221.121094 C 238.359375 216.738281 238.195312 212.359375 238.160156 207.972656 C 238.105469 201.730469 238.144531 195.484375 238.144531 189.242188 C 238.113281 189.242188 238.078125 189.242188 238.050781 189.242188 Z M 238.050781 189.238281 " fill-opacity="1" fill-rule="nonzero"/></g><g clip-path="url(#7f32fd5fbc)"><path fill="#000000" d="M 133.195312 210.777344 C 133.113281 203.921875 133.089844 197.074219 132.941406 190.222656 C 132.820312 184.492188 132.503906 178.769531 132.375 173.039062 C 132.230469 166.871094 132.136719 160.703125 132.144531 154.535156 C 132.15625 145.40625 132.25 136.277344 132.375 127.152344 C 132.429688 122.769531 132.589844 118.386719 132.804688 114.007812 C 132.910156 111.816406 133.246094 109.640625 133.480469 107.457031 C 133.523438 107.042969 133.554688 106.628906 133.644531 106.222656 C 133.683594 106.035156 133.847656 105.878906 133.957031 105.703125 C 134.066406 105.882812 134.265625 106.054688 134.273438 106.238281 C 134.3125 107.222656 134.3125 108.207031 134.308594 109.195312 C 134.273438 113.746094 134.226562 118.300781 134.195312 122.855469 C 134.1875 123.9375 134.21875 125.019531 134.238281 126.101562 C 134.300781 129.535156 134.375 132.96875 134.421875 136.40625 C 134.441406 138.207031 134.398438 140.011719 134.402344 141.8125 C 134.402344 149.253906 134.402344 156.695312 134.429688 164.136719 C 134.4375 166.566406 134.496094 168.992188 134.574219 171.425781 C 134.726562 175.953125 134.910156 180.488281 135.070312 185.019531 C 135.125 186.6875 135.175781 188.359375 135.195312 190.03125 C 135.351562 201.796875 135.515625 213.5625 135.648438 225.328125 C 135.738281 233.679688 135.8125 242.027344 135.835938 250.378906 C 135.84375 254.574219 135.660156 258.769531 135.667969 262.960938 C 135.675781 267.324219 135.636719 271.703125 135.925781 276.050781 C 136.542969 285.550781 136.621094 295.074219 136.589844 304.597656 C 136.582031 307.082031 136.390625 309.5625 136.328125 312.050781 C 136.304688 312.96875 136.433594 313.898438 136.441406 314.820312 C 136.441406 315.089844 136.347656 315.445312 136.171875 315.605469 C 136.015625 315.746094 135.617188 315.773438 135.449219 315.652344 C 135.257812 315.515625 135.152344 315.175781 135.109375 314.90625 C 134.980469 314.105469 134.878906 313.304688 134.804688 312.503906 C 134.742188 311.800781 134.707031 311.101562 134.707031 310.402344 C 134.695312 301.484375 134.765625 292.558594 134.664062 283.636719 C 134.589844 277.320312 134.273438 271.003906 134.089844 264.6875 C 134.011719 261.996094 134.011719 259.300781 133.953125 256.601562 C 133.847656 251.957031 133.722656 247.304688 133.609375 242.660156 C 133.503906 238.277344 133.339844 233.898438 133.304688 229.511719 C 133.25 223.269531 133.289062 217.023438 133.289062 210.78125 C 133.261719 210.78125 133.226562 210.78125 133.195312 210.78125 Z M 133.195312 210.777344 " fill-opacity="1" fill-rule="nonzero"/></g><g clip-path="url(#065671fa82)"><path fill="#000000" d="M 117.453125 232.910156 C 117.375 226.058594 117.347656 219.210938 117.203125 212.355469 C 117.078125 206.628906 116.765625 200.902344 116.632812 195.175781 C 116.492188 189.007812 116.394531 182.839844 116.40625 176.671875 C 116.417969 167.542969 116.511719 158.410156 116.632812 149.285156 C 116.691406 144.90625 116.851562 140.519531 117.066406 136.144531 C 117.171875 133.953125 117.507812 131.777344 117.742188 129.59375 C 117.785156 129.179688 117.816406 128.765625 117.90625 128.359375 C 117.945312 128.171875 118.109375 128.011719 118.21875 127.839844 C 118.328125 128.015625 118.527344 128.191406 118.535156 128.371094 C 118.574219 129.355469 118.574219 130.339844 118.570312 131.328125 C 118.535156 135.882812 118.488281 140.4375 118.457031 144.988281 C 118.449219 146.070312 118.476562 147.15625 118.5 148.238281 C 118.5625 151.671875 118.636719 155.105469 118.679688 158.542969 C 118.703125 160.34375 118.660156 162.148438 118.664062 163.949219 C 118.664062 171.390625 118.664062 178.832031 118.691406 186.273438 C 118.699219 188.703125 118.757812 191.128906 118.835938 193.558594 C 118.984375 198.089844 119.171875 202.625 119.328125 207.15625 C 119.386719 208.824219 119.4375 210.496094 119.457031 212.164062 C 119.613281 223.929688 119.773438 235.695312 119.90625 247.460938 C 120 255.8125 120.074219 264.164062 120.097656 272.515625 C 120.105469 276.710938 119.921875 280.902344 119.929688 285.097656 C 119.9375 289.460938 119.898438 293.839844 120.1875 298.1875 C 120.804688 307.6875 120.882812 317.207031 120.851562 326.734375 C 120.84375 329.214844 120.652344 331.699219 120.585938 334.183594 C 120.566406 335.105469 120.691406 336.03125 120.703125 336.957031 C 120.703125 337.226562 120.609375 337.582031 120.433594 337.738281 C 120.277344 337.878906 119.875 337.90625 119.710938 337.785156 C 119.519531 337.652344 119.414062 337.3125 119.371094 337.039062 C 119.242188 336.242188 119.140625 335.441406 119.066406 334.636719 C 119.003906 333.9375 118.96875 333.238281 118.96875 332.539062 C 118.953125 323.617188 119.023438 314.695312 118.925781 305.773438 C 118.847656 299.457031 118.535156 293.140625 118.351562 286.824219 C 118.269531 284.132812 118.269531 281.433594 118.214844 278.738281 C 118.109375 274.09375 117.984375 269.441406 117.871094 264.792969 C 117.761719 260.414062 117.601562 256.03125 117.566406 251.648438 C 117.511719 245.40625 117.550781 239.160156 117.550781 232.917969 C 117.519531 232.917969 117.484375 232.917969 117.453125 232.917969 Z M 117.453125 232.910156 " fill-opacity="1" fill-rule="nonzero"/></g><g clip-path="url(#fe205fbd79)"><g clip-path="url(#7ec1761a16)"><g clip-path="url(#723a1b839b)"><g clip-path="url(#42e36de6f2)"><path fill="#000000" d="M 360.121094 216.875 L 215.414062 72.167969 C 212.5625 69.3125 207.871094 69.375 204.945312 72.300781 C 202.015625 75.230469 201.953125 79.917969 204.808594 82.773438 L 349.515625 227.480469 C 352.371094 230.332031 357.058594 230.273438 359.988281 227.34375 C 362.914062 224.414062 362.976562 219.726562 360.121094 216.875 Z M 360.121094 216.875 " fill-opacity="1" fill-rule="nonzero"/></g></g></g></g><g clip-path="url(#bb1478de0a)"><g clip-path="url(#f3ecee41a7)"><g clip-path="url(#bd65f9dd8f)"><g clip-path="url(#12034c4469)"><path fill="#000000" d="M 148.277344 261.433594 L 16.632812 129.789062 C 14.035156 127.195312 9.792969 127.226562 7.160156 129.863281 C 4.523438 132.5 4.492188 136.742188 7.085938 139.335938 L 138.730469 270.980469 C 141.328125 273.578125 145.570312 273.546875 148.207031 270.910156 C 150.839844 268.273438 150.875 264.03125 148.277344 261.433594 Z M 148.277344 261.433594 " fill-opacity="1" fill-rule="nonzero"/></g></g></g></g><g clip-path="url(#68fef760cb)"><g clip-path="url(#30bd7b778e)"><g clip-path="url(#fdccc067a4)"><g clip-path="url(#eb572737ba)"><path fill="#000000" d="M 355.277344 359.121094 L 220.179688 224.023438 C 217.515625 221.355469 213.21875 221.332031 210.582031 223.96875 C 207.945312 226.605469 207.96875 230.902344 210.632812 233.566406 L 345.734375 368.664062 C 348.398438 371.332031 352.695312 371.351562 355.332031 368.71875 C 357.964844 366.082031 357.945312 361.785156 355.277344 359.121094 Z M 355.277344 359.121094 " fill-opacity="1" fill-rule="nonzero"/></g></g></g></g><g clip-path="url(#d04df7dca6)"><path fill="#000000" d="M 172.4375 236.605469 C 171.3125 236.984375 170.496094 236.691406 169.957031 235.785156 C 169.507812 234.964844 169.140625 234.089844 168.804688 233.210938 C 168.523438 232.480469 169.027344 231.515625 169.875 231.308594 C 170.410156 231.191406 171 231.222656 171.566406 231.25 C 172.15625 231.28125 172.46875 231.601562 172.496094 232.070312 C 172.636719 233.621094 172.636719 235.140625 172.4375 236.605469 Z M 172.4375 236.605469 " fill-opacity="1" fill-rule="nonzero"/></g><g clip-path="url(#743c1c3613)"><path fill="#000000" d="M 171.960938 226.191406 C 171.960938 226.777344 171.988281 227.359375 171.929688 227.945312 C 171.902344 228.269531 171.847656 228.707031 171.394531 228.707031 C 171.085938 228.707031 170.746094 228.617188 170.4375 228.53125 C 170.324219 228.503906 170.210938 228.445312 170.15625 228.355469 C 169.226562 227.300781 168.523438 226.101562 168.183594 224.730469 C 168.070312 224.320312 168.183594 223.820312 168.296875 223.355469 C 168.324219 223.179688 168.578125 222.945312 168.746094 222.886719 C 169.761719 222.535156 170.71875 223.003906 171.707031 223.207031 C 171.847656 223.238281 172.042969 223.558594 172.042969 223.761719 C 172.074219 224.582031 172.074219 225.402344 172.074219 226.21875 C 172.042969 226.191406 172.015625 226.191406 171.960938 226.191406 Z M 171.960938 226.191406 " fill-opacity="1" fill-rule="nonzero"/></g><g clip-path="url(#dedde57340)"><path fill="#000000" d="M 168.886719 176.523438 C 168.886719 176.347656 168.886719 176.230469 168.886719 176.113281 C 168.945312 175 169.902344 174.269531 171 174.445312 C 171.789062 174.59375 172.355469 175.089844 172.355469 175.761719 C 172.355469 176.816406 172.296875 177.839844 172.242188 178.890625 C 172.214844 179.417969 171.480469 179.828125 170.945312 179.652344 C 169.875 179.332031 169.199219 178.628906 169 177.488281 C 168.945312 177.167969 168.917969 176.816406 168.886719 176.523438 Z M 168.886719 176.523438 " fill-opacity="1" fill-rule="nonzero"/></g><path fill="#000000" d="M 172.214844 167.453125 C 172.804688 168.363281 172.496094 169.328125 172.496094 170.261719 C 172.496094 170.613281 172.4375 170.964844 172.410156 171.316406 C 172.355469 171.902344 171.679688 172.28125 171.140625 172.019531 C 169.453125 171.199219 168.804688 169.882812 169.113281 167.980469 C 169.140625 167.746094 169.253906 167.484375 169.394531 167.367188 C 169.648438 167.164062 169.988281 166.871094 170.269531 166.898438 C 170.917969 167.015625 171.566406 167.28125 172.214844 167.453125 Z M 172.214844 167.453125 " fill-opacity="1" fill-rule="nonzero"/><path fill="#000000" d="M 172.183594 243.246094 C 171.59375 243.480469 171.03125 243.332031 170.605469 242.953125 C 169.648438 242.074219 169.027344 240.992188 169.085938 239.617188 C 169.085938 239.148438 169.535156 238.738281 169.988281 238.855469 C 170.746094 239.0625 171.480469 239.296875 172.214844 239.5 C 172.691406 241.3125 172.664062 241.3125 172.183594 243.246094 Z M 172.183594 243.246094 " fill-opacity="1" fill-rule="nonzero"/><g clip-path="url(#4bf6fb9326)"><path fill="#000000" d="M 172.664062 156.457031 C 172.609375 156.808594 172.550781 157.390625 172.4375 157.949219 C 172.410156 158.066406 172.015625 158.210938 171.902344 158.152344 C 170.746094 157.480469 169.929688 156.542969 169.816406 155.109375 C 169.789062 154.527344 169.816406 153.941406 169.902344 153.355469 C 169.929688 153.152344 170.101562 152.917969 170.296875 152.828125 C 170.972656 152.507812 172.355469 153.328125 172.46875 154.085938 C 172.550781 154.789062 172.578125 155.492188 172.664062 156.457031 Z M 172.664062 156.457031 " fill-opacity="1" fill-rule="nonzero"/></g><g clip-path="url(#92ef627fe7)"><path fill="#000000" d="M 171.988281 204.664062 C 171.960938 205.101562 171.902344 205.539062 171.875 206.007812 C 171.847656 206.417969 171.226562 206.710938 170.804688 206.503906 C 170.523438 206.328125 170.210938 206.183594 169.988281 205.949219 C 169.113281 205.070312 168.886719 203.929688 168.832031 202.761719 C 168.832031 202.554688 169 202.320312 169.113281 202.148438 C 169.535156 201.589844 170.101562 201.707031 170.664062 201.824219 C 171.226562 201.972656 171.761719 202.234375 171.847656 202.90625 C 171.960938 203.433594 171.960938 204.019531 171.988281 204.664062 Z M 171.988281 204.664062 " fill-opacity="1" fill-rule="nonzero"/></g><path fill="#000000" d="M 169.058594 190.183594 C 169.113281 189.976562 169.113281 189.597656 169.28125 189.335938 C 169.453125 189.070312 169.761719 188.808594 170.042969 188.75 C 171.085938 188.515625 171.929688 189.128906 171.988281 190.09375 C 172.015625 190.796875 172.015625 191.5 171.988281 192.203125 C 171.988281 192.757812 171.648438 193.167969 171.253906 193.253906 C 170.777344 193.34375 170.324219 193.167969 169.988281 192.875 C 169.339844 192.203125 169.058594 191.324219 169.058594 190.183594 Z M 169.058594 190.183594 " fill-opacity="1" fill-rule="nonzero"/><g clip-path="url(#6fcdfb70c9)"><path fill="#000000" d="M 171.621094 213.730469 C 171.171875 213.964844 170.746094 213.875 170.382812 213.554688 C 169.480469 212.792969 168.972656 211.742188 168.804688 210.570312 C 168.71875 209.984375 168.945312 209.429688 169.480469 209.109375 C 169.648438 208.992188 169.988281 208.933594 170.101562 209.019531 C 170.636719 209.429688 171.140625 209.867188 171.621094 210.367188 C 171.761719 210.511719 171.820312 210.777344 171.847656 211.011719 C 171.875 211.917969 171.988281 212.851562 171.621094 213.730469 Z M 171.621094 213.730469 " fill-opacity="1" fill-rule="nonzero"/></g><path fill="#000000" d="M 172.382812 164.617188 C 171.761719 164.878906 171.226562 164.648438 170.746094 164.355469 C 170.042969 163.914062 169.648438 163.183594 169.28125 162.453125 C 168.945312 161.75 169.59375 160.667969 170.382812 160.640625 C 170.71875 160.609375 171.058594 160.667969 171.394531 160.726562 C 171.988281 160.84375 172.4375 161.222656 172.523438 161.898438 C 172.609375 162.480469 172.636719 163.066406 172.609375 163.652344 C 172.609375 163.972656 172.4375 164.324219 172.382812 164.617188 Z M 172.382812 164.617188 " fill-opacity="1" fill-rule="nonzero"/><g clip-path="url(#0060c5318c)"><path fill="#000000" d="M 171.621094 220.632812 C 170.746094 220.867188 170.070312 220.488281 169.5625 219.8125 C 168.972656 219.054688 168.832031 218.148438 169.140625 217.183594 C 169.253906 216.832031 169.816406 216.449219 170.183594 216.449219 C 171.085938 216.480469 171.734375 217.035156 171.789062 217.882812 C 171.847656 218.585938 171.847656 219.289062 171.847656 219.960938 C 171.820312 220.195312 171.707031 220.429688 171.621094 220.632812 Z M 171.621094 220.632812 " fill-opacity="1" fill-rule="nonzero"/></g><path fill="#000000" d="M 171.929688 198.519531 C 171.929688 198.546875 171.902344 198.898438 171.761719 199.222656 C 171.707031 199.367188 171.394531 199.515625 171.226562 199.484375 C 169.902344 199.164062 169.199219 198.375 169.140625 197.144531 C 169.113281 196.648438 169.28125 196.207031 169.707031 195.976562 C 170.691406 195.449219 171.847656 196.089844 171.929688 197.175781 C 171.960938 197.523438 171.929688 197.875 171.929688 198.519531 Z M 171.929688 198.519531 " fill-opacity="1" fill-rule="nonzero"/><path fill="#000000" d="M 172.242188 245.964844 C 172.269531 246.578125 172.296875 247.136719 172.296875 247.71875 C 172.296875 248.394531 171.847656 249.242188 171.59375 249.152344 C 171.199219 249.007812 170.746094 248.800781 170.4375 248.511719 C 170.128906 248.21875 169.902344 247.777344 169.675781 247.367188 C 169.3125 246.695312 169.28125 246.050781 169.5625 245.761719 C 169.957031 245.378906 170.410156 245.554688 170.832031 245.644531 C 171.285156 245.730469 171.734375 245.820312 172.242188 245.964844 Z M 172.242188 245.964844 " fill-opacity="1" fill-rule="nonzero"/><path fill="#000000" d="M 171.761719 255.765625 C 171.507812 255.648438 171.140625 255.589844 170.890625 255.355469 C 170.242188 254.828125 169.875 254.097656 169.761719 253.21875 C 169.675781 252.574219 169.957031 251.785156 170.324219 251.667969 C 171.226562 251.40625 172.382812 252.050781 172.410156 252.957031 C 172.4375 253.773438 172.382812 254.59375 172.296875 255.414062 C 172.324219 255.53125 172.015625 255.617188 171.761719 255.765625 Z M 171.761719 255.765625 " fill-opacity="1" fill-rule="nonzero"/><path fill="#000000" d="M 172.015625 184.597656 C 171.929688 184.917969 171.875 185.386719 171.707031 185.796875 C 171.648438 185.941406 171.3125 186.085938 171.140625 186.058594 C 170.832031 185.972656 170.410156 185.855469 170.269531 185.589844 C 169.902344 185.003906 169.621094 184.363281 169.367188 183.71875 C 169.199219 183.308594 169.394531 182.664062 169.675781 182.429688 C 170.15625 182.050781 171.140625 182.023438 171.566406 182.460938 C 171.707031 182.605469 171.847656 182.839844 171.875 183.046875 C 171.988281 183.484375 171.988281 183.980469 172.015625 184.597656 Z M 172.015625 184.597656 " fill-opacity="1" fill-rule="nonzero"/><path fill="#000000" d="M 172.636719 259.714844 C 172.578125 260.035156 172.550781 260.414062 172.4375 260.707031 C 172.382812 260.855469 172.074219 261.058594 171.929688 261.03125 C 170.890625 260.707031 170.296875 259.800781 170.324219 258.660156 C 170.324219 258.542969 170.382812 258.425781 170.4375 258.367188 C 170.777344 257.988281 171.988281 258.015625 172.355469 258.398438 C 172.4375 258.484375 172.523438 258.570312 172.550781 258.660156 C 172.578125 258.980469 172.578125 259.332031 172.636719 259.714844 Z M 172.636719 259.714844 " fill-opacity="1" fill-rule="nonzero"/><path fill="#000000" d="M 172.074219 266.96875 C 171.960938 266.9375 171.820312 266.9375 171.761719 266.878906 C 170.972656 266.292969 170.578125 265.476562 170.523438 264.453125 C 170.496094 263.984375 170.945312 263.542969 171.394531 263.660156 C 172.214844 263.835938 172.550781 264.128906 172.523438 264.746094 C 172.523438 265.445312 172.410156 266.148438 172.355469 266.851562 C 172.324219 266.910156 172.15625 266.9375 172.074219 266.96875 Z M 172.074219 266.96875 " fill-opacity="1" fill-rule="nonzero"/><g clip-path="url(#ade7ddca72)"><path fill="#000000" d="M 172.609375 283.785156 C 171.820312 283.640625 171.566406 282.96875 171.3125 282.324219 C 171.03125 281.652344 171.621094 280.921875 172.410156 281.007812 C 172.609375 281.039062 172.890625 281.183594 172.945312 281.359375 C 173.285156 282.121094 173.3125 282.9375 172.917969 283.699219 C 172.890625 283.757812 172.71875 283.757812 172.609375 283.785156 Z M 172.609375 283.785156 " fill-opacity="1" fill-rule="nonzero"/></g><path fill="#000000" d="M 172.523438 277.9375 C 172.410156 277.9375 172.296875 277.996094 172.214844 277.9375 C 171.535156 277.644531 171.140625 277.058594 170.972656 276.328125 C 170.890625 276.007812 171.394531 275.449219 171.820312 275.363281 C 172.183594 275.304688 172.578125 275.390625 172.664062 275.742188 C 172.832031 276.296875 172.917969 276.882812 172.945312 277.46875 C 172.972656 277.613281 172.691406 277.789062 172.523438 277.9375 Z M 172.523438 277.9375 " fill-opacity="1" fill-rule="nonzero"/><g clip-path="url(#e1fbe86625)"><path fill="#000000" d="M 171.199219 288.613281 C 171.285156 288.234375 171.820312 287.792969 172.183594 287.734375 C 172.523438 287.707031 173.003906 288.175781 173.03125 288.613281 C 173.058594 289.050781 173.171875 289.550781 172.804688 289.929688 C 172.664062 290.074219 172.355469 290.222656 172.242188 290.132812 C 171.761719 289.839844 171.285156 289.519531 171.199219 288.90625 C 171.199219 288.816406 171.199219 288.699219 171.199219 288.613281 Z M 171.199219 288.613281 " fill-opacity="1" fill-rule="nonzero"/></g><path fill="#000000" d="M 171.789062 270.359375 C 172.015625 270.535156 172.296875 270.710938 172.496094 270.945312 C 172.71875 271.238281 172.609375 271.589844 172.4375 271.882812 C 172.382812 271.96875 172.296875 272.058594 172.214844 272.058594 C 171.761719 272.058594 171.199219 271.324219 171.339844 270.828125 C 171.367188 270.710938 171.59375 270.566406 171.789062 270.359375 Z M 171.789062 270.359375 " fill-opacity="1" fill-rule="nonzero"/><path fill="#000000" d="M 171.820312 296.304688 C 171.734375 296.128906 171.453125 295.808594 171.507812 295.632812 C 171.621094 295.371094 171.960938 295.222656 172.214844 295.046875 C 172.296875 295.253906 172.410156 295.457031 172.410156 295.664062 C 172.4375 296.128906 172.242188 296.363281 171.820312 296.304688 Z M 171.820312 296.304688 " fill-opacity="1" fill-rule="nonzero"/><g clip-path="url(#71cca55b05)"><path fill="#000000" d="M 171.621094 302.507812 C 171.621094 302.507812 171.425781 302.507812 171.425781 302.476562 C 171.394531 302.273438 171.3125 302.039062 171.367188 301.863281 C 171.480469 301.542969 171.679688 301.570312 171.734375 301.894531 C 171.789062 302.097656 171.679688 302.300781 171.621094 302.507812 Z M 171.621094 302.507812 " fill-opacity="1" fill-rule="nonzero"/></g><g clip-path="url(#71cb3c4b37)"><g clip-path="url(#64b9f5b3a3)"><g clip-path="url(#982b13d64f)"><g clip-path="url(#c796d57f88)"><path fill="#000000" d="M 166.644531 128.613281 L 21.9375 -16.09375 C 19.082031 -18.945312 14.394531 -18.886719 11.464844 -15.957031 C 8.535156 -13.027344 8.476562 -8.339844 11.328125 -5.484375 L 156.035156 139.21875 C 158.890625 142.074219 163.578125 142.015625 166.507812 139.085938 C 169.4375 136.15625 169.496094 131.46875 166.644531 128.613281 Z M 166.644531 128.613281 " fill-opacity="1" fill-rule="nonzero"/></g></g></g></g><g clip-path="url(#8f0605e74f)"><path fill="#000000" d="M 119.835938 210.777344 C 119.757812 203.921875 119.730469 197.074219 119.582031 190.222656 C 119.460938 184.492188 119.148438 178.769531 119.015625 173.039062 C 118.875 166.871094 118.777344 160.703125 118.785156 154.535156 C 118.796875 145.40625 118.890625 136.277344 119.015625 127.152344 C 119.070312 122.769531 119.230469 118.386719 119.445312 114.007812 C 119.554688 111.816406 119.886719 109.640625 120.121094 107.457031 C 120.167969 107.042969 120.195312 106.628906 120.285156 106.222656 C 120.324219 106.035156 120.488281 105.878906 120.597656 105.703125 C 120.707031 105.882812 120.90625 106.054688 120.917969 106.238281 C 120.957031 107.222656 120.957031 108.207031 120.953125 109.195312 C 120.917969 113.746094 120.867188 118.300781 120.835938 122.855469 C 120.828125 123.9375 120.859375 125.019531 120.882812 126.101562 C 120.941406 129.535156 121.019531 132.96875 121.0625 136.40625 C 121.082031 138.207031 121.039062 140.011719 121.042969 141.8125 C 121.042969 149.253906 121.042969 156.695312 121.070312 164.136719 C 121.078125 166.566406 121.136719 168.992188 121.214844 171.425781 C 121.367188 175.953125 121.550781 180.488281 121.710938 185.019531 C 121.769531 186.6875 121.816406 188.359375 121.839844 190.03125 C 121.992188 201.796875 122.15625 213.5625 122.289062 225.328125 C 122.382812 233.679688 122.457031 242.027344 122.476562 250.378906 C 122.488281 254.574219 122.300781 258.769531 122.308594 262.960938 C 122.320312 267.324219 122.28125 271.703125 122.566406 276.050781 C 123.183594 285.550781 123.261719 295.074219 123.230469 304.597656 C 123.222656 307.082031 123.035156 309.5625 122.96875 312.050781 C 122.945312 312.96875 123.074219 313.898438 123.082031 314.820312 C 123.082031 315.089844 122.988281 315.445312 122.8125 315.605469 C 122.660156 315.746094 122.257812 315.773438 122.089844 315.652344 C 121.898438 315.515625 121.792969 315.175781 121.75 314.90625 C 121.621094 314.105469 121.519531 313.304688 121.445312 312.503906 C 121.382812 311.800781 121.347656 311.101562 121.347656 310.402344 C 121.335938 301.484375 121.40625 292.558594 121.304688 283.636719 C 121.230469 277.320312 120.917969 271.003906 120.730469 264.6875 C 120.652344 261.996094 120.652344 259.300781 120.59375 256.601562 C 120.488281 251.957031 120.363281 247.304688 120.25 242.660156 C 120.144531 238.277344 119.980469 233.898438 119.945312 229.511719 C 119.894531 223.269531 119.933594 217.023438 119.933594 210.78125 C 119.902344 210.78125 119.867188 210.78125 119.835938 210.78125 Z M 119.835938 210.777344 " fill-opacity="1" fill-rule="nonzero"/></g><g clip-path="url(#643474c3bb)"><path fill="#000000" d="M 235.667969 227.5625 C 235.589844 220.707031 235.5625 213.859375 235.417969 207.003906 C 235.292969 201.277344 234.980469 195.550781 234.847656 189.824219 C 234.707031 183.65625 234.609375 177.488281 234.617188 171.320312 C 234.632812 162.191406 234.722656 153.0625 234.847656 143.9375 C 234.90625 139.554688 235.0625 135.167969 235.28125 130.792969 C 235.386719 128.601562 235.722656 126.425781 235.957031 124.242188 C 236 123.828125 236.03125 123.414062 236.117188 123.007812 C 236.15625 122.820312 236.320312 122.660156 236.429688 122.488281 C 236.542969 122.667969 236.742188 122.839844 236.75 123.019531 C 236.789062 124.003906 236.789062 124.988281 236.785156 125.980469 C 236.75 130.53125 236.699219 135.085938 236.667969 139.640625 C 236.660156 140.722656 236.691406 141.804688 236.714844 142.886719 C 236.777344 146.320312 236.851562 149.753906 236.894531 153.191406 C 236.917969 154.992188 236.871094 156.796875 236.878906 158.597656 C 236.878906 166.039062 236.878906 173.480469 236.902344 180.921875 C 236.914062 183.351562 236.96875 185.777344 237.050781 188.210938 C 237.199219 192.738281 237.382812 197.273438 237.542969 201.804688 C 237.601562 203.472656 237.648438 205.144531 237.671875 206.8125 C 237.824219 218.582031 237.988281 230.347656 238.121094 242.113281 C 238.214844 250.460938 238.289062 258.8125 238.3125 267.164062 C 238.320312 271.359375 238.132812 275.550781 238.144531 279.746094 C 238.152344 284.109375 238.113281 288.488281 238.398438 292.835938 C 239.015625 302.335938 239.097656 311.859375 239.066406 321.382812 C 239.054688 323.867188 238.867188 326.347656 238.800781 328.835938 C 238.777344 329.753906 238.90625 330.683594 238.914062 331.605469 C 238.914062 331.875 238.824219 332.230469 238.644531 332.390625 C 238.492188 332.53125 238.089844 332.558594 237.921875 332.4375 C 237.734375 332.300781 237.628906 331.960938 237.582031 331.691406 C 237.457031 330.890625 237.355469 330.089844 237.277344 329.285156 C 237.21875 328.585938 237.179688 327.886719 237.179688 327.1875 C 237.167969 318.269531 237.238281 309.34375 237.136719 300.421875 C 237.0625 294.105469 236.75 287.789062 236.5625 281.472656 C 236.484375 278.78125 236.484375 276.085938 236.425781 273.386719 C 236.320312 268.742188 236.199219 264.089844 236.082031 259.441406 C 235.976562 255.0625 235.8125 250.683594 235.777344 246.296875 C 235.726562 240.054688 235.765625 233.808594 235.765625 227.566406 C 235.734375 227.566406 235.699219 227.566406 235.667969 227.566406 Z M 235.667969 227.5625 " fill-opacity="1" fill-rule="nonzero"/></g></g></g></g><path fill="#f5f5f1" d="M 261.648438 290.96875 L 113.351562 290.96875 L 113.351562 61.269531 L 261.648438 61.269531 Z M 114.183594 290.136719 L 260.8125 290.136719 L 260.8125 62.105469 L 114.183594 62.105469 Z M 114.183594 290.136719 " fill-opacity="1" fill-rule="nonzero"/><g clip-path="url(#d4efba9f60)"><path fill="#f5f5f1" d="M 253.457031 295.863281 L 105.523438 285.519531 L 105.550781 285.105469 L 121.542969 56.378906 L 269.476562 66.71875 L 269.445312 67.136719 Z M 106.414062 284.746094 L 252.683594 294.972656 L 268.585938 67.496094 L 122.316406 57.269531 Z M 106.414062 284.746094 " fill-opacity="1" fill-rule="nonzero"/><path fill="#f5f5f1" d="M 121.542969 295.863281 L 121.511719 295.445312 L 105.523438 66.71875 L 253.457031 56.378906 L 269.476562 285.519531 L 269.058594 285.550781 Z M 106.414062 67.492188 L 122.316406 294.972656 L 268.585938 284.746094 L 252.683594 57.269531 Z M 106.414062 67.492188 " fill-opacity="1" fill-rule="nonzero"/></g><g fill="#ffffff" fill-opacity="1"><g transform="translate(87.920244, 317.709207)"><g><path d="M 6.90625 -10.5625 C 5.53125 -10.5625 4.359375 -10.082031 3.390625 -9.125 C 2.910156 -8.632812 2.550781 -8.082031 2.3125 -7.46875 C 2.070312 -6.863281 1.953125 -6.238281 1.953125 -5.59375 C 1.953125 -4.957031 2.070312 -4.332031 2.3125 -3.71875 C 2.550781 -3.113281 2.910156 -2.570312 3.390625 -2.09375 C 4.359375 -1.125 5.53125 -0.640625 6.90625 -0.640625 C 8.226562 -0.640625 9.375 -1.09375 10.34375 -2 L 10.34375 -5.28125 L 6.28125 -5.28125 L 6.28125 -5.921875 L 10.953125 -5.921875 L 10.953125 0 L 10.34375 0 L 10.34375 -1.171875 C 9.320312 -0.390625 8.175781 0 6.90625 0 C 6.164062 0 5.453125 -0.140625 4.765625 -0.421875 C 4.085938 -0.703125 3.476562 -1.109375 2.9375 -1.640625 C 2.394531 -2.191406 1.988281 -2.804688 1.71875 -3.484375 C 1.445312 -4.171875 1.3125 -4.875 1.3125 -5.59375 C 1.3125 -6.320312 1.445312 -7.023438 1.71875 -7.703125 C 1.988281 -8.390625 2.394531 -9.007812 2.9375 -9.5625 C 3.476562 -10.09375 4.085938 -10.5 4.765625 -10.78125 C 5.453125 -11.0625 6.164062 -11.203125 6.90625 -11.203125 C 7.65625 -11.203125 8.367188 -11.0625 9.046875 -10.78125 C 9.734375 -10.5 10.335938 -10.09375 10.859375 -9.5625 L 10.421875 -9.125 C 9.441406 -10.082031 8.269531 -10.5625 6.90625 -10.5625 Z M 6.90625 -10.5625 "/></g></g></g><g fill="#ffffff" fill-opacity="1"><g transform="translate(100.221291, 317.709207)"><g><path d="M 2 0 L 1.3125 0 L 6.09375 -11.203125 L 6.515625 -11.203125 L 11.296875 0 L 10.609375 0 L 9.578125 -2.40625 L 3.03125 -2.40625 Z M 6.296875 -10.078125 L 3.296875 -3.046875 L 9.3125 -3.046875 Z M 6.296875 -10.078125 "/></g></g></g><g fill="#ffffff" fill-opacity="1"><g transform="translate(112.842258, 317.709207)"><g><path d="M 1.3125 -5.921875 L 1.3125 -11.203125 L 8 -11.203125 C 8.539062 -11.203125 9.035156 -11.066406 9.484375 -10.796875 C 9.929688 -10.535156 10.285156 -10.179688 10.546875 -9.734375 C 10.816406 -9.285156 10.953125 -8.785156 10.953125 -8.234375 C 10.953125 -7.660156 10.800781 -7.140625 10.5 -6.671875 C 10.207031 -6.203125 9.816406 -5.84375 9.328125 -5.59375 C 9.816406 -5.351562 10.207031 -5 10.5 -4.53125 C 10.800781 -4.0625 10.953125 -3.535156 10.953125 -2.953125 C 10.953125 -2.410156 10.816406 -1.914062 10.546875 -1.46875 C 10.285156 -1.019531 9.929688 -0.660156 9.484375 -0.390625 C 9.035156 -0.128906 8.539062 0 8 0 L 1.3125 0 Z M 10.34375 -2.953125 C 10.34375 -3.378906 10.234375 -3.769531 10.015625 -4.125 C 9.804688 -4.476562 9.523438 -4.757812 9.171875 -4.96875 C 8.816406 -5.175781 8.425781 -5.28125 8 -5.28125 L 1.953125 -5.28125 L 1.953125 -0.640625 L 8 -0.640625 C 8.425781 -0.640625 8.816406 -0.742188 9.171875 -0.953125 C 9.523438 -1.160156 9.804688 -1.4375 10.015625 -1.78125 C 10.234375 -2.132812 10.34375 -2.523438 10.34375 -2.953125 Z M 1.953125 -10.5625 L 1.953125 -5.921875 L 8 -5.921875 C 8.425781 -5.921875 8.816406 -6.023438 9.171875 -6.234375 C 9.523438 -6.441406 9.804688 -6.71875 10.015625 -7.0625 C 10.234375 -7.414062 10.34375 -7.804688 10.34375 -8.234375 C 10.34375 -8.660156 10.234375 -9.050781 10.015625 -9.40625 C 9.804688 -9.757812 9.523438 -10.039062 9.171875 -10.25 C 8.816406 -10.457031 8.425781 -10.5625 8 -10.5625 Z M 1.953125 -10.5625 "/></g></g></g><g fill="#ffffff" fill-opacity="1"><g transform="translate(125.143305, 317.709207)"><g><path d="M 10.953125 -8.234375 C 10.953125 -7.691406 10.816406 -7.195312 10.546875 -6.75 C 10.285156 -6.300781 9.929688 -5.941406 9.484375 -5.671875 C 9.035156 -5.410156 8.539062 -5.28125 8 -5.28125 L 6.828125 -5.28125 L 11.328125 0 L 10.5 0 L 6 -5.28125 L 1.953125 -5.28125 L 1.953125 0 L 1.3125 0 L 1.3125 -11.203125 L 8 -11.203125 C 8.539062 -11.203125 9.035156 -11.066406 9.484375 -10.796875 C 9.929688 -10.535156 10.285156 -10.179688 10.546875 -9.734375 C 10.816406 -9.285156 10.953125 -8.785156 10.953125 -8.234375 Z M 1.953125 -10.5625 L 1.953125 -5.921875 L 8 -5.921875 C 8.425781 -5.921875 8.816406 -6.023438 9.171875 -6.234375 C 9.523438 -6.441406 9.804688 -6.71875 10.015625 -7.0625 C 10.234375 -7.414062 10.34375 -7.804688 10.34375 -8.234375 C 10.34375 -8.660156 10.234375 -9.050781 10.015625 -9.40625 C 9.804688 -9.757812 9.523438 -10.039062 9.171875 -10.25 C 8.816406 -10.457031 8.425781 -10.5625 8 -10.5625 Z M 1.953125 -10.5625 "/></g></g></g><g fill="#ffffff" fill-opacity="1"><g transform="translate(137.812257, 317.709207)"><g><path d="M 1.953125 0 L 1.3125 0 L 1.3125 -11.203125 L 1.953125 -11.203125 Z M 1.953125 0 "/></g></g></g><g fill="#ffffff" fill-opacity="1"><g transform="translate(141.107469, 317.709207)"><g><path d="M 10.953125 -0.640625 L 10.953125 0 L 1.3125 0 L 1.3125 -11.203125 L 10.953125 -11.203125 L 10.953125 -10.5625 L 1.953125 -10.5625 L 1.953125 -5.921875 L 7.78125 -5.921875 L 7.78125 -5.28125 L 1.953125 -5.28125 L 1.953125 -0.640625 Z M 10.953125 -0.640625 "/></g></g></g><g fill="#ffffff" fill-opacity="1"><g transform="translate(153.408516, 317.709207)"><g><path d="M 10.953125 -0.640625 L 10.953125 0 L 1.3125 0 L 1.3125 -11.203125 L 1.953125 -11.203125 L 1.953125 -0.640625 Z M 10.953125 -0.640625 "/></g></g></g><g fill="#ffffff" fill-opacity="1"><g transform="translate(165.709564, 317.709207)"><g/></g></g><g fill="#ffffff" fill-opacity="1"><g transform="translate(171.340217, 317.709207)"><g><path d="M 1.3125 -11.203125 L 1.828125 -11.203125 L 6.90625 -1.03125 L 12 -11.203125 L 12.515625 -11.203125 L 12.515625 0 L 11.875 0 L 11.875 -9.53125 L 7.109375 0 L 6.71875 0 L 1.953125 -9.53125 L 1.953125 0 L 1.3125 0 Z M 1.3125 -11.203125 "/></g></g></g><g fill="#ffffff" fill-opacity="1"><g transform="translate(185.176889, 317.709207)"><g><path d="M 6.90625 0 C 6.144531 0 5.425781 -0.140625 4.75 -0.421875 C 4.070312 -0.710938 3.472656 -1.117188 2.953125 -1.640625 C 2.429688 -2.160156 2.023438 -2.757812 1.734375 -3.4375 C 1.453125 -4.113281 1.3125 -4.832031 1.3125 -5.59375 C 1.3125 -6.363281 1.453125 -7.085938 1.734375 -7.765625 C 2.023438 -8.441406 2.429688 -9.039062 2.953125 -9.5625 C 3.472656 -10.082031 4.070312 -10.484375 4.75 -10.765625 C 5.425781 -11.054688 6.144531 -11.203125 6.90625 -11.203125 C 7.675781 -11.203125 8.398438 -11.054688 9.078125 -10.765625 C 9.753906 -10.484375 10.347656 -10.082031 10.859375 -9.5625 C 11.378906 -9.039062 11.785156 -8.441406 12.078125 -7.765625 C 12.367188 -7.085938 12.515625 -6.363281 12.515625 -5.59375 C 12.515625 -4.832031 12.367188 -4.113281 12.078125 -3.4375 C 11.785156 -2.757812 11.378906 -2.160156 10.859375 -1.640625 C 10.347656 -1.117188 9.753906 -0.710938 9.078125 -0.421875 C 8.398438 -0.140625 7.675781 0 6.90625 0 Z M 6.90625 -10.5625 C 6.226562 -10.5625 5.585938 -10.429688 4.984375 -10.171875 C 4.378906 -9.921875 3.847656 -9.566406 3.390625 -9.109375 C 2.941406 -8.660156 2.585938 -8.132812 2.328125 -7.53125 C 2.078125 -6.925781 1.953125 -6.28125 1.953125 -5.59375 C 1.953125 -4.914062 2.078125 -4.273438 2.328125 -3.671875 C 2.585938 -3.066406 2.941406 -2.535156 3.390625 -2.078125 C 3.847656 -1.628906 4.378906 -1.273438 4.984375 -1.015625 C 5.585938 -0.765625 6.226562 -0.640625 6.90625 -0.640625 C 7.59375 -0.640625 8.238281 -0.765625 8.84375 -1.015625 C 9.445312 -1.273438 9.972656 -1.628906 10.421875 -2.078125 C 10.878906 -2.535156 11.234375 -3.066406 11.484375 -3.671875 C 11.742188 -4.273438 11.875 -4.914062 11.875 -5.59375 C 11.875 -6.28125 11.742188 -6.925781 11.484375 -7.53125 C 11.234375 -8.132812 10.878906 -8.660156 10.421875 -9.109375 C 9.972656 -9.566406 9.445312 -9.921875 8.84375 -10.171875 C 8.238281 -10.429688 7.59375 -10.5625 6.90625 -10.5625 Z M 6.90625 -10.5625 "/></g></g></g><g fill="#ffffff" fill-opacity="1"><g transform="translate(199.013562, 317.709207)"><g><path d="M 1.953125 -10.03125 L 1.953125 0 L 1.3125 0 L 1.3125 -11.203125 L 1.78125 -11.203125 L 10.34375 -1.171875 L 10.34375 -11.203125 L 10.953125 -11.203125 L 10.953125 0 L 10.5 0 Z M 1.953125 -10.03125 "/></g></g></g><g fill="#ffffff" fill-opacity="1"><g transform="translate(211.31461, 317.709207)"><g><path d="M 5.828125 0 L 5.828125 -10.5625 L 1.3125 -10.5625 L 1.3125 -11.203125 L 10.953125 -11.203125 L 10.953125 -10.5625 L 6.453125 -10.5625 L 6.453125 0 Z M 5.828125 0 "/></g></g></g><g fill="#ffffff" fill-opacity="1"><g transform="translate(223.615657, 317.709207)"><g><path d="M 10.953125 -0.640625 L 10.953125 0 L 1.3125 0 L 1.3125 -11.203125 L 10.953125 -11.203125 L 10.953125 -10.5625 L 1.953125 -10.5625 L 1.953125 -5.921875 L 7.78125 -5.921875 L 7.78125 -5.28125 L 1.953125 -5.28125 L 1.953125 -0.640625 Z M 10.953125 -0.640625 "/></g></g></g><g fill="#ffffff" fill-opacity="1"><g transform="translate(235.916704, 317.709207)"><g><path d="M 1.953125 0 L 1.3125 0 L 1.3125 -11.203125 L 1.953125 -11.203125 Z M 1.953125 0 "/></g></g></g><g fill="#ffffff" fill-opacity="1"><g transform="translate(239.211916, 317.709207)"><g><path d="M 10.953125 -8.234375 C 10.953125 -7.691406 10.816406 -7.195312 10.546875 -6.75 C 10.285156 -6.300781 9.929688 -5.941406 9.484375 -5.671875 C 9.035156 -5.410156 8.539062 -5.28125 8 -5.28125 L 6.828125 -5.28125 L 11.328125 0 L 10.5 0 L 6 -5.28125 L 1.953125 -5.28125 L 1.953125 0 L 1.3125 0 L 1.3125 -11.203125 L 8 -11.203125 C 8.539062 -11.203125 9.035156 -11.066406 9.484375 -10.796875 C 9.929688 -10.535156 10.285156 -10.179688 10.546875 -9.734375 C 10.816406 -9.285156 10.953125 -8.785156 10.953125 -8.234375 Z M 1.953125 -10.5625 L 1.953125 -5.921875 L 8 -5.921875 C 8.425781 -5.921875 8.816406 -6.023438 9.171875 -6.234375 C 9.523438 -6.441406 9.804688 -6.71875 10.015625 -7.0625 C 10.234375 -7.414062 10.34375 -7.804688 10.34375 -8.234375 C 10.34375 -8.660156 10.234375 -9.050781 10.015625 -9.40625 C 9.804688 -9.757812 9.523438 -10.039062 9.171875 -10.25 C 8.816406 -10.457031 8.425781 -10.5625 8 -10.5625 Z M 1.953125 -10.5625 "/></g></g></g><g fill="#ffffff" fill-opacity="1"><g transform="translate(251.880868, 317.709207)"><g><path d="M 6.90625 0 C 6.144531 0 5.425781 -0.140625 4.75 -0.421875 C 4.070312 -0.710938 3.472656 -1.117188 2.953125 -1.640625 C 2.429688 -2.160156 2.023438 -2.757812 1.734375 -3.4375 C 1.453125 -4.113281 1.3125 -4.832031 1.3125 -5.59375 C 1.3125 -6.363281 1.453125 -7.085938 1.734375 -7.765625 C 2.023438 -8.441406 2.429688 -9.039062 2.953125 -9.5625 C 3.472656 -10.082031 4.070312 -10.484375 4.75 -10.765625 C 5.425781 -11.054688 6.144531 -11.203125 6.90625 -11.203125 C 7.675781 -11.203125 8.398438 -11.054688 9.078125 -10.765625 C 9.753906 -10.484375 10.347656 -10.082031 10.859375 -9.5625 C 11.378906 -9.039062 11.785156 -8.441406 12.078125 -7.765625 C 12.367188 -7.085938 12.515625 -6.363281 12.515625 -5.59375 C 12.515625 -4.832031 12.367188 -4.113281 12.078125 -3.4375 C 11.785156 -2.757812 11.378906 -2.160156 10.859375 -1.640625 C 10.347656 -1.117188 9.753906 -0.710938 9.078125 -0.421875 C 8.398438 -0.140625 7.675781 0 6.90625 0 Z M 6.90625 -10.5625 C 6.226562 -10.5625 5.585938 -10.429688 4.984375 -10.171875 C 4.378906 -9.921875 3.847656 -9.566406 3.390625 -9.109375 C 2.941406 -8.660156 2.585938 -8.132812 2.328125 -7.53125 C 2.078125 -6.925781 1.953125 -6.28125 1.953125 -5.59375 C 1.953125 -4.914062 2.078125 -4.273438 2.328125 -3.671875 C 2.585938 -3.066406 2.941406 -2.535156 3.390625 -2.078125 C 3.847656 -1.628906 4.378906 -1.273438 4.984375 -1.015625 C 5.585938 -0.765625 6.226562 -0.640625 6.90625 -0.640625 C 7.59375 -0.640625 8.238281 -0.765625 8.84375 -1.015625 C 9.445312 -1.273438 9.972656 -1.628906 10.421875 -2.078125 C 10.878906 -2.535156 11.234375 -3.066406 11.484375 -3.671875 C 11.742188 -4.273438 11.875 -4.914062 11.875 -5.59375 C 11.875 -6.28125 11.742188 -6.925781 11.484375 -7.53125 C 11.234375 -8.132812 10.878906 -8.660156 10.421875 -9.109375 C 9.972656 -9.566406 9.445312 -9.921875 8.84375 -10.171875 C 8.238281 -10.429688 7.59375 -10.5625 6.90625 -10.5625 Z M 6.90625 -10.5625 "/></g></g></g><g fill="#ffffff" fill-opacity="1"><g transform="translate(265.717541, 317.709207)"><g/></g></g><g fill="#ffffff" fill-opacity="1"><g transform="translate(271.348194, 317.709207)"><g><path d="M 1.3125 -11.203125 L 5.359375 -11.203125 C 6.140625 -11.203125 6.863281 -11.054688 7.53125 -10.765625 C 8.207031 -10.484375 8.800781 -10.082031 9.3125 -9.5625 C 9.832031 -9.039062 10.234375 -8.441406 10.515625 -7.765625 C 10.804688 -7.085938 10.953125 -6.363281 10.953125 -5.59375 C 10.953125 -4.832031 10.804688 -4.113281 10.515625 -3.4375 C 10.234375 -2.757812 9.832031 -2.160156 9.3125 -1.640625 C 8.800781 -1.117188 8.207031 -0.710938 7.53125 -0.421875 C 6.863281 -0.140625 6.140625 0 5.359375 0 L 1.3125 0 Z M 10.34375 -5.59375 C 10.34375 -6.28125 10.207031 -6.925781 9.9375 -7.53125 C 9.675781 -8.132812 9.316406 -8.660156 8.859375 -9.109375 C 8.410156 -9.566406 7.882812 -9.921875 7.28125 -10.171875 C 6.6875 -10.429688 6.046875 -10.5625 5.359375 -10.5625 L 1.953125 -10.5625 L 1.953125 -0.640625 L 5.359375 -0.640625 C 6.046875 -0.640625 6.6875 -0.765625 7.28125 -1.015625 C 7.882812 -1.273438 8.410156 -1.628906 8.859375 -2.078125 C 9.316406 -2.535156 9.675781 -3.066406 9.9375 -3.671875 C 10.207031 -4.273438 10.34375 -4.914062 10.34375 -5.59375 Z M 10.34375 -5.59375 "/></g></g></g><g fill="#ffffff" fill-opacity="1"><g transform="translate(283.649241, 317.709207)"><g><path d="M 2 0 L 1.3125 0 L 6.09375 -11.203125 L 6.515625 -11.203125 L 11.296875 0 L 10.609375 0 L 9.578125 -2.40625 L 3.03125 -2.40625 Z M 6.296875 -10.078125 L 3.296875 -3.046875 L 9.3125 -3.046875 Z M 6.296875 -10.078125 "/></g></g></g><g fill="#ffffff" fill-opacity="1"><g transform="translate(162.709301, 339.459206)"><g><path d="M 10.953125 -2.953125 C 10.953125 -2.410156 10.816406 -1.914062 10.546875 -1.46875 C 10.285156 -1.019531 9.929688 -0.660156 9.484375 -0.390625 C 9.035156 -0.128906 8.539062 0 8 0 L 4.265625 0 C 3.722656 0 3.226562 -0.128906 2.78125 -0.390625 C 2.332031 -0.660156 1.972656 -1.019531 1.703125 -1.46875 C 1.441406 -1.914062 1.3125 -2.410156 1.3125 -2.953125 L 1.953125 -2.953125 C 1.953125 -2.523438 2.054688 -2.132812 2.265625 -1.78125 C 2.472656 -1.4375 2.75 -1.160156 3.09375 -0.953125 C 3.445312 -0.742188 3.835938 -0.640625 4.265625 -0.640625 L 8 -0.640625 C 8.425781 -0.640625 8.816406 -0.742188 9.171875 -0.953125 C 9.523438 -1.160156 9.804688 -1.4375 10.015625 -1.78125 C 10.234375 -2.132812 10.34375 -2.523438 10.34375 -2.953125 C 10.34375 -3.378906 10.234375 -3.769531 10.015625 -4.125 C 9.804688 -4.476562 9.523438 -4.757812 9.171875 -4.96875 C 8.816406 -5.175781 8.425781 -5.28125 8 -5.28125 L 4.265625 -5.28125 C 3.722656 -5.28125 3.226562 -5.410156 2.78125 -5.671875 C 2.332031 -5.941406 1.972656 -6.300781 1.703125 -6.75 C 1.441406 -7.195312 1.3125 -7.691406 1.3125 -8.234375 C 1.3125 -8.785156 1.441406 -9.285156 1.703125 -9.734375 C 1.972656 -10.179688 2.332031 -10.535156 2.78125 -10.796875 C 3.226562 -11.066406 3.722656 -11.203125 4.265625 -11.203125 L 8 -11.203125 C 8.539062 -11.203125 9.035156 -11.066406 9.484375 -10.796875 C 9.929688 -10.535156 10.285156 -10.179688 10.546875 -9.734375 C 10.816406 -9.285156 10.953125 -8.785156 10.953125 -8.234375 L 10.34375 -8.234375 C 10.34375 -8.660156 10.234375 -9.050781 10.015625 -9.40625 C 9.804688 -9.757812 9.523438 -10.039062 9.171875 -10.25 C 8.816406 -10.457031 8.425781 -10.5625 8 -10.5625 L 4.265625 -10.5625 C 3.835938 -10.5625 3.445312 -10.457031 3.09375 -10.25 C 2.75 -10.039062 2.472656 -9.757812 2.265625 -9.40625 C 2.054688 -9.050781 1.953125 -8.660156 1.953125 -8.234375 C 1.953125 -7.804688 2.054688 -7.414062 2.265625 -7.0625 C 2.472656 -6.71875 2.75 -6.441406 3.09375 -6.234375 C 3.445312 -6.023438 3.835938 -5.921875 4.265625 -5.921875 L 8 -5.921875 C 8.539062 -5.921875 9.035156 -5.785156 9.484375 -5.515625 C 9.929688 -5.253906 10.285156 -4.898438 10.546875 -4.453125 C 10.816406 -4.003906 10.953125 -3.503906 10.953125 -2.953125 Z M 10.953125 -2.953125 "/></g></g></g><g fill="#ffffff" fill-opacity="1"><g transform="translate(175.010349, 339.459206)"><g><path d="M 1.953125 0 L 1.3125 0 L 1.3125 -11.203125 L 1.953125 -11.203125 Z M 1.953125 0 "/></g></g></g><g fill="#ffffff" fill-opacity="1"><g transform="translate(178.30556, 339.459206)"><g><path d="M 10.953125 -0.640625 L 10.953125 0 L 1.3125 0 L 1.3125 -11.203125 L 1.953125 -11.203125 L 1.953125 -0.640625 Z M 10.953125 -0.640625 "/></g></g></g><g fill="#ffffff" fill-opacity="1"><g transform="translate(190.606608, 339.459206)"><g><path d="M 6.296875 -1.125 L 10.609375 -11.203125 L 11.296875 -11.203125 L 6.515625 0 L 6.09375 0 L 1.3125 -11.203125 L 2 -11.203125 Z M 6.296875 -1.125 "/></g></g></g><g fill="#ffffff" fill-opacity="1"><g transform="translate(203.227575, 339.459206)"><g><path d="M 2 0 L 1.3125 0 L 6.09375 -11.203125 L 6.515625 -11.203125 L 11.296875 0 L 10.609375 0 L 9.578125 -2.40625 L 3.03125 -2.40625 Z M 6.296875 -10.078125 L 3.296875 -3.046875 L 9.3125 -3.046875 Z M 6.296875 -10.078125 "/></g></g></g><g fill="#ffffff" fill-opacity="1"><g transform="translate(215.853833, 339.459206)"><g/></g></g></svg>